<?xml version="1.0" encoding="UTF-8" standalone="no"?>
<svg
   xmlns:dc="http://purl.org/dc/elements/1.1/"
   xmlns:cc="http://creativecommons.org/ns#"
   xmlns:rdf="http://www.w3.org/1999/02/22-rdf-syntax-ns#"
   xmlns:svg="http://www.w3.org/2000/svg"
   xmlns="http://www.w3.org/2000/svg"
   xmlns:sodipodi="http://sodipodi.sourceforge.net/DTD/sodipodi-0.dtd"
   xmlns:inkscape="http://www.inkscape.org/namespaces/inkscape"
   id="Layer_1"
   data-name="Layer 1"
   viewBox="0 0 1002.2892 426.21658"
   version="1.1"
   sodipodi:docname="yuzu_handheld_dark.svg"
   width="1002.2892"
   height="426.21658"
   inkscape:version="0.92.5 (2060ec1f9f, 2020-04-08)">
  <metadata
     id="metadata151">
    <rdf:RDF>
      <cc:Work
         rdf:about="">
        <dc:format>image/svg+xml</dc:format>
        <dc:type
           rdf:resource="http://purl.org/dc/dcmitype/StillImage" />
        <dc:title></dc:title>
      </cc:Work>
    </rdf:RDF>
  </metadata>
  <sodipodi:namedview
     pagecolor="#ffffff"
     bordercolor="#666666"
     borderopacity="1"
     objecttolerance="10"
     gridtolerance="10"
     guidetolerance="10"
     inkscape:pageopacity="0"
     inkscape:pageshadow="2"
     inkscape:window-width="2078"
     inkscape:window-height="1283"
     id="namedview149"
     showgrid="false"
     inkscape:pagecheckerboard="true"
     inkscape:lockguides="true"
     fit-margin-top="0"
     fit-margin-left="0"
     fit-margin-right="0"
     fit-margin-bottom="0"
     inkscape:zoom="0.90509668"
     inkscape:cx="785.3101"
     inkscape:cy="312.64375"
     inkscape:window-x="2895"
     inkscape:window-y="22"
     inkscape:window-maximized="0"
     inkscape:current-layer="Layer_1" />
  <defs
     id="defs4">
    <style
       id="style2">.cls-1{opacity:0.1;}.cls-2{fill:#02c5e5;}.cls-3{fill:#ff5f55;}.cls-4{fill:#fff;}</style>
  </defs>
  <path
     style="fill:#44484c;fill-opacity:0.78440366;stroke:#ffffff;stroke-width:1px;stroke-linecap:butt;stroke-linejoin:miter;stroke-opacity:0.78431373"
     d="M 137.51246,29.284719 V 364.88433 h 4.41211 V 29.284719 Z"
     id="path3826"
     inkscape:connector-curvature="0" />
  <path
     style="fill:#44484c;fill-opacity:0.78440366;stroke:#ffffff;stroke-width:1px;stroke-linecap:butt;stroke-linejoin:miter;stroke-opacity:0.78431373"
     d="M 860.40503,29.282766 V 364.88238 h 4.3711 V 29.282766 Z"
     id="path3820"
     inkscape:connector-curvature="0" />
  <path
     class="cls-4"
     d="m 297.00321,4.3916 h -60.6775 c -0.27582,-1.5e-4 -0.49937,-0.2237 -0.49952,-0.49952 v -1.7024 c 0.001,-0.93289 0.75728,-1.68877 1.69017,-1.68968 h 17.95207 c 0.27582,1.5e-4 0.49937,0.22370004 0.49952,0.49952004 V 1.6188 h 21.393 V 0.99952004 C 277.3611,0.72371004 277.58466,0.50015 277.86047,0.5 h 17.95207 c 0.93289,9.1e-4 1.68899,0.75679 1.69017,1.68968 v 1.70239 c -1.4e-4,0.27581 -0.22369,0.49937 -0.4995,0.49953 z"
     id="path146"
     inkscape:connector-curvature="0"
     style="fill:#44484c;fill-opacity:0.78440366;stroke:#ffffff;stroke-width:1;stroke-miterlimit:4;stroke-dasharray:none;stroke-opacity:0.78431373"
     sodipodi:nodetypes="ccccccccccccccc" />
  <path
     style="fill:#44484c;fill-opacity:0.78440366;stroke:#ffffff;stroke-width:2;stroke-miterlimit:4;stroke-dasharray:none;stroke-opacity:0.78431373"
     d="m 173.94531,19.34375 c -6.84733,0.0078 -12.39629,5.556967 -12.40429,12.404297 V 397.87109 c 0.008,6.8474 5.55689,12.3963 12.40429,12.4043 h 654.44336 c 6.84741,-0.008 12.3963,-5.55689 12.4043,-12.4043 V 31.748047 c -0.008,-6.84733 -5.55697,-12.396297 -12.4043,-12.404297 z m 42.45117,34.617188 H 785.9375 c 0.27582,1.49e-4 0.49985,0.222226 0.5,0.498046 V 375.1582 c -1.5e-4,0.27582 -0.22418,0.49985 -0.5,0.5 H 216.39648 c -0.27582,-1.5e-4 -0.49985,-0.22418 -0.5,-0.5 V 54.458984 c 1.5e-4,-0.27582 0.22418,-0.497897 0.5,-0.498046 z"
     id="path140"
     inkscape:connector-curvature="0" />
  <path
     class="cls-4"
     d="M 785.93743,375.65814 H 216.39559 c -0.27582,-1.5e-4 -0.49938,-0.22371 -0.49953,-0.49953 V 54.459835 c 1.5e-4,-0.27582 0.22371,-0.49937 0.49953,-0.49952 h 569.54184 c 0.27582,1.5e-4 0.49938,0.2237 0.49953,0.49952 V 375.15861 c -1.5e-4,0.27582 -0.22371,0.49938 -0.49953,0.49953 z"
     id="path142"
     inkscape:connector-curvature="0"
     style="fill:none;stroke:#ffffff;stroke-width:2;stroke-miterlimit:4;stroke-dasharray:none;stroke-opacity:0.78431373"
     sodipodi:nodetypes="ccccccccc" />
  <path
     class="cls-4"
     d="M 857.5258,425.21658 H 144.80433 c -1.59012,-0.002 -2.87858,-1.2907 -2.88033,-2.88082 V 23.856905 c 0.002,-1.5242 1.23687,-2.75939 2.76107,-2.76107 5.63855,-0.006 10.2079,-4.57578 10.21433,-10.21433 V 7.1668453 c 0.002,-1.52429 1.23727,-2.75942 2.76156,-2.76106 h 687.00719 c 1.52437,0.001 2.75982,1.23669 2.76156,2.76106 v 3.7146597 c 0.006,5.63862 4.57572,10.20807 10.21434,10.21434 1.52437,10e-4 2.75982,1.2367 2.76155,2.76107 V 422.33576 c -0.002,1.58994 -1.28986,2.87859 -2.8798,2.88082 z"
     id="path144"
     inkscape:connector-curvature="0"
     style="fill:none;stroke:#ffffff;stroke-width:2;stroke-miterlimit:4;stroke-dasharray:none;stroke-opacity:0.78431373"
     sodipodi:nodetypes="ccccccccccccccc" />
  <path
     style="fill:#44484c;fill-opacity:0.78440366;stroke:#ffffff;stroke-width:1px;stroke-linecap:butt;stroke-linejoin:miter;stroke-opacity:0.78431373"
     d="m 85.56338,1.0409353 c -40.49355,0 -76.73952,32.6615597 -82.95117,55.8437497 -0.28337,1.05756 -0.3844,3.18164 1.45899,3.18164 H 7.04581 C 22.40489,23.417395 63.31369,6.1737553 85.71963,6.1737553 h 28.75 v -2.47657 c 0,-1.25689 -1.28376,-2.65625 -2.65625,-2.65625 z"
     id="path3832"
     inkscape:connector-curvature="0" />
  <path
     sodipodi:nodetypes="ccccccccc"
     inkscape:connector-curvature="0"
     id="path3925"
     d="m 137.51227,9.4235953 0.004,413.3124947 c 0,1.0235 -0.51372,1.78518 -1.80469,1.78518 l -49.63672,0.004 C 34.39535,424.52527 1,378.2104 1,338.83321 V 90.892345 C 1,33.007265 57.76439,6.1734053 85.71895,6.1734053 h 48.79057 c 2.4861,0 3.00284,1.36797 3.00284,3.25019 z"
     style="fill:none;fill-opacity:1;stroke:#ffffff;stroke-width:2;stroke-linecap:butt;stroke-linejoin:miter;stroke-miterlimit:4;stroke-dasharray:none;stroke-opacity:0.78431373" />
  <circle
     id="path3871"
     style="fill:#44484c;fill-opacity:0.88235294;stroke:#ffffff;stroke-width:0.99999994;stroke-linecap:round;stroke-linejoin:round;stroke-miterlimit:4;stroke-dasharray:none;stroke-opacity:0.78431373"
     cx="73.204567"
     cy="201.08255"
     r="15.150405" />
  <circle
     style="fill:#44484c;fill-opacity:0.88235294;stroke:#ffffff;stroke-width:0.99999994;stroke-linecap:round;stroke-linejoin:round;stroke-miterlimit:4;stroke-dasharray:none;stroke-opacity:0.78431373"
     id="path3873"
     cx="73.204567"
     cy="263.71204"
     r="15.150405" />
  <circle
     style="fill:#44484c;fill-opacity:0.88235294;stroke:#ffffff;stroke-width:0.99999994;stroke-linecap:round;stroke-linejoin:round;stroke-miterlimit:4;stroke-dasharray:none;stroke-opacity:0.78431373"
     id="path3875"
     transform="rotate(90)"
     cx="232.39731"
     cy="-41.889809"
     r="15.150405" />
  <circle
     transform="rotate(90)"
     id="path3877"
     style="fill:#44484c;fill-opacity:0.88235294;stroke:#ffffff;stroke-width:0.99999994;stroke-linecap:round;stroke-linejoin:round;stroke-miterlimit:4;stroke-dasharray:none;stroke-opacity:0.78431373"
     cx="232.39731"
     cy="-104.51926"
     r="15.150405" />
  <rect
     style="fill:#44484c;fill-opacity:0.88235294;stroke:#ffffff;stroke-width:1;stroke-linecap:round;stroke-linejoin:round;stroke-miterlimit:4;stroke-dasharray:none;stroke-opacity:0.78431373"
     id="rect3890"
     width="22.1875"
     height="6.375"
     x="104.26367"
     y="44.509785" />
  <circle
     id="path3907"
     style="fill:#44484c;fill-opacity:0.78440366;stroke:#ffffff;stroke-width:1;stroke-linecap:round;stroke-linejoin:round;stroke-miterlimit:4;stroke-dasharray:none;stroke-opacity:0.78431373"
     cx="73.32618"
     cy="114.50976"
     r="32.0625" />
  <circle
     style="fill:#3a3d40;fill-opacity:0.77981651;stroke:#ffffff;stroke-width:0.99999994;stroke-linecap:round;stroke-linejoin:round;stroke-miterlimit:4;stroke-dasharray:none;stroke-opacity:0.78431373"
     id="path3909"
     cx="73.32618"
     cy="114.73217"
     r="22.484156" />
  <path
     inkscape:connector-curvature="0"
     id="path3911"
     d="m 72.16442,88.396015 c 2e-4,-2.14499 0.006,-3.41233 0.0158,-3.48046 0.0299,-0.20675 0.13156,-0.40432 0.28919,-0.56195 0.4752,-0.4752 1.28334,-0.33419 1.57638,0.27505 0.10984,0.22838 0.10221,-0.0485 0.10247,3.71783 l 2.3e-4,3.40192 -0.70143,-8.2e-4 c -0.38578,-4.5e-4 -0.83227,0.004 -0.99219,0.0105 l -0.29075,0.0113 3e-4,-3.37331 z"
     style="fill:#ffffff;fill-opacity:0.78431373;stroke:#ffffff;stroke-width:0.03125;stroke-linecap:round;stroke-linejoin:round;stroke-miterlimit:4;stroke-dasharray:none;stroke-opacity:0.78431373" />
  <path
     inkscape:connector-curvature="0"
     id="path3913"
     d="m 73.04484,144.81682 c -0.38945,-0.0436 -0.7247,-0.33325 -0.8473,-0.73195 -0.0244,-0.0793 -0.0268,-0.33014 -0.0311,-3.23924 l -0.005,-3.1533 0.2308,0.0127 c 0.12694,0.007 0.57368,0.0127 0.99275,0.0127 h 0.76194 l -0.004,3.15625 -0.004,3.15625 -0.0347,0.10157 c -0.10445,0.30532 -0.34564,0.54509 -0.65134,0.64749 -0.0998,0.0334 -0.28935,0.0509 -0.40814,0.0376 v 0 z"
     style="fill:#ffffff;fill-opacity:0.78431373;stroke:#ffffff;stroke-width:0.03125;stroke-linecap:round;stroke-linejoin:round;stroke-miterlimit:4;stroke-dasharray:none;stroke-opacity:0.78431373" />
  <path
     inkscape:connector-curvature="0"
     id="path3915"
     d="m 96.31093,114.80008 c 0,-0.35469 -0.006,-0.80142 -0.0127,-0.99274 l -0.0127,-0.34784 3.23141,0.004 3.23141,0.004 0.11461,0.0419 c 0.43114,0.15748 0.6991,0.55501 0.66997,0.99393 -0.0161,0.24326 -0.11165,0.45768 -0.28091,0.63065 -0.13281,0.13572 -0.25762,0.20774 -0.48804,0.28161 -0.0498,0.016 -0.71149,0.021 -3.25781,0.0246 l -3.19532,0.005 v -0.6449 0 z"
     style="fill:#ffffff;fill-opacity:0.78431373;stroke:#ffffff;stroke-width:0.03125;stroke-linecap:round;stroke-linejoin:round;stroke-miterlimit:4;stroke-dasharray:none;stroke-opacity:0.78431373" />
  <path
     inkscape:connector-curvature="0"
     id="path3917"
     d="m 43.63906,115.42791 c -0.21504,-0.0284 -0.42503,-0.1369 -0.57817,-0.2988 -0.53275,-0.56321 -0.26401,-1.4625 0.49223,-1.64714 0.0705,-0.0172 0.68912,-0.0211 3.44981,-0.0215 l 3.36387,-5.6e-4 -0.0123,0.33203 c -0.007,0.18262 -0.0123,0.62911 -0.0123,0.9922 v 0.66016 l -3.30468,-0.002 c -1.81758,-0.001 -3.34688,-0.008 -3.39844,-0.0144 z"
     style="fill:#ffffff;fill-opacity:0.78431373;stroke:#ffffff;stroke-width:0.03125;stroke-linecap:round;stroke-linejoin:round;stroke-miterlimit:4;stroke-dasharray:none;stroke-opacity:0.78431373" />
  <rect
     style="fill:#44484c;fill-opacity:0.77981651;stroke:#ffffff;stroke-width:1;stroke-linecap:round;stroke-linejoin:round;stroke-miterlimit:4;stroke-dasharray:none;stroke-opacity:0.78431373"
     id="rect3919"
     width="25.75"
     height="25.125"
     x="83.38868"
     y="299.38474"
     ry="3.375" />
  <circle
     style="fill:#ffffff;fill-opacity:1;stroke:#ffffff;stroke-width:1;stroke-linecap:round;stroke-linejoin:round;stroke-miterlimit:4;stroke-dasharray:none;stroke-opacity:0.78431373"
     id="path3921"
     cx="96.16993"
     cy="312.16599"
     r="8.84375" />
  <path
     sodipodi:type="star"
     style="fill:#ffffff;fill-opacity:1;stroke:#ffffff;stroke-width:1;stroke-linecap:round;stroke-linejoin:round;stroke-miterlimit:4;stroke-dasharray:none;stroke-opacity:0.78431373"
     id="path3014"
     sodipodi:sides="3"
     sodipodi:cx="104.14195"
     sodipodi:cy="232.42815"
     sodipodi:r1="7.3185139"
     sodipodi:r2="3.6592569"
     sodipodi:arg1="2.0943951"
     sodipodi:arg2="3.1415927"
     inkscape:flatsided="true"
     inkscape:rounded="0"
     inkscape:randomized="0"
     d="m 100.4827,238.76617 0,-12.67604 10.97777,6.33802 z"
     inkscape:transform-center-x="-1.8296276"
     inkscape:transform-center-y="-1.0018697e-05" />
  <path
     inkscape:transform-center-y="-1.0018697e-05"
     inkscape:transform-center-x="1.8296245"
     transform="scale(-1,1)"
     d="m -46.085412,238.76617 0,-12.67604 10.977771,6.33802 z"
     inkscape:randomized="0"
     inkscape:rounded="0"
     inkscape:flatsided="true"
     sodipodi:arg2="3.1415927"
     sodipodi:arg1="2.0943951"
     sodipodi:r2="3.6592569"
     sodipodi:r1="7.3185139"
     sodipodi:cy="232.42815"
     sodipodi:cx="-42.426155"
     sodipodi:sides="3"
     id="path3788"
     style="fill:#ffffff;fill-opacity:1;stroke:#ffffff;stroke-width:1;stroke-linecap:round;stroke-linejoin:round;stroke-miterlimit:4;stroke-dasharray:none;stroke-opacity:0.78431373"
     sodipodi:type="star" />
  <path
     transform="matrix(0,-1.1053456,1.1053456,0,-873.901,354.59413)"
     d="m 134.97306,862.5577 0,-11.46794 9.93153,5.73397 z"
     inkscape:randomized="0"
     inkscape:rounded="0"
     inkscape:flatsided="true"
     sodipodi:arg2="3.1415927"
     sodipodi:arg1="2.0943951"
     sodipodi:r2="3.3105094"
     sodipodi:r1="6.6210189"
     sodipodi:cy="856.82373"
     sodipodi:cx="138.28357"
     sodipodi:sides="3"
     id="path3790"
     style="fill:#ffffff;fill-opacity:1;stroke:#ffffff;stroke-width:0.90469444;stroke-linecap:round;stroke-linejoin:round;stroke-miterlimit:4;stroke-dasharray:none;stroke-opacity:0.78431373"
     sodipodi:type="star"
     inkscape:transform-center-y="-1.8296239" />
  <path
     sodipodi:type="star"
     style="fill:#ffffff;fill-opacity:1;stroke:#ffffff;stroke-width:0.90469444;stroke-linecap:round;stroke-linejoin:round;stroke-miterlimit:4;stroke-dasharray:none;stroke-opacity:0.78431373"
     id="path3792"
     sodipodi:sides="3"
     sodipodi:cx="138.28357"
     sodipodi:cy="856.82373"
     sodipodi:r1="6.6210189"
     sodipodi:r2="3.3105094"
     sodipodi:arg1="2.0943951"
     sodipodi:arg2="3.1415927"
     inkscape:flatsided="true"
     inkscape:rounded="0"
     inkscape:randomized="0"
     d="m 134.97306,862.5577 0,-11.46794 9.93153,5.73397 z"
     transform="matrix(0,1.1053456,1.1053456,0,-873.901,110.6076)"
     inkscape:transform-center-y="1.829623" />
  <path
     style="fill:#44484c;fill-opacity:0.78899087;stroke:#ffffff;stroke-width:1px;stroke-linecap:butt;stroke-linejoin:miter;stroke-opacity:0.78431373"
     d="m 890.27634,1.0395269 c -1.3725,0 -2.6562,1.39936 -2.6562,2.65625 v 3.09375 h 28.9492 c 22.2807,0 62.864,17.0469701 78.4199,53.2753861 h 3.0313 c 1.8434,0 1.7403,-2.12408 1.457,-3.18164 -6.2117,-23.182186 -42.4577,-55.8437461 -82.9512,-55.8437461 z"
     id="path3818"
     inkscape:connector-curvature="0" />
  <path
     style="fill:none;fill-opacity:1;stroke:#ffffff;stroke-width:2;stroke-linecap:butt;stroke-linejoin:miter;stroke-miterlimit:4;stroke-dasharray:none;stroke-opacity:0.78431373"
     d="M 864.77674,10.039607 V 422.72709 c 0,1.0235 0.5059,1.7969 1.7969,1.7969 h 49.6406 c 51.6795,0 85.07496,-45.69766 85.07496,-85.07485 V 91.508353 c 0,-57.885076 -56.76446,-84.7189361 -84.71906,-84.7189361 h -48.7906 c -2.4861,0 -3.0028,1.36797 -3.0028,3.2501901 z"
     id="path3923"
     inkscape:connector-curvature="0"
     sodipodi:nodetypes="ccccccccc" />
  <path
     style="fill:#44484c;fill-opacity:0.88235294;stroke:#ffffff;stroke-width:1px;stroke-linecap:round;stroke-linejoin:round;stroke-opacity:0.78431373"
     d="m 876.05654,44.506183 h 7.6077 v -7.513006 h 6.3134 v 7.544566 h 7.4815 v 6.31346 h -7.4499 v 7.79711 h -6.4081 v -7.79711 h -7.5131 z"
     id="path3093"
     inkscape:connector-curvature="0" />
  <circle
     style="fill:#44484c;fill-opacity:0.88235294;stroke:#ffffff;stroke-width:0.99999994;stroke-linecap:round;stroke-linejoin:round;stroke-miterlimit:4;stroke-dasharray:none;stroke-opacity:0.78431373"
     id="path3095"
     cx="928.52692"
     cy="80.545456"
     r="15.150405" />
  <circle
     id="path3865"
     style="fill:#44484c;fill-opacity:0.88235294;stroke:#ffffff;stroke-width:0.99999994;stroke-linecap:round;stroke-linejoin:round;stroke-miterlimit:4;stroke-dasharray:none;stroke-opacity:0.78431373"
     cx="928.52692"
     cy="143.1749"
     r="15.150405" />
  <circle
     transform="rotate(90)"
     id="path3867"
     style="fill:#44484c;fill-opacity:0.88235294;stroke:#ffffff;stroke-width:0.99999994;stroke-linecap:round;stroke-linejoin:round;stroke-miterlimit:4;stroke-dasharray:none;stroke-opacity:0.78431373"
     cx="111.86021"
     cy="-897.21204"
     r="15.150405" />
  <circle
     style="fill:#44484c;fill-opacity:0.88235294;stroke:#ffffff;stroke-width:0.99999994;stroke-linecap:round;stroke-linejoin:round;stroke-miterlimit:4;stroke-dasharray:none;stroke-opacity:0.78431373"
     id="path3869"
     transform="rotate(90)"
     cx="111.86021"
     cy="-959.84149"
     r="15.150405" />
  <circle
     id="path3879"
     style="fill:#999595;fill-opacity:0.78440366;stroke:#ffffff;stroke-width:1;stroke-linecap:round;stroke-linejoin:round;stroke-miterlimit:4;stroke-dasharray:none;stroke-opacity:0.78431373"
     cx="905.76782"
     cy="306.30331"
     r="16.829487" />
  <circle
     style="fill:#3a3d40;fill-opacity:0.78440366;stroke:#ffffff;stroke-width:1;stroke-linecap:round;stroke-linejoin:round;stroke-miterlimit:4;stroke-dasharray:none;stroke-opacity:0.78431373"
     id="path3881"
     cx="905.76782"
     cy="306.45639"
     r="12.569263" />
  <path
     style="fill:#ffffff;fill-opacity:1;stroke:#ffffff;stroke-width:1;stroke-linecap:butt;stroke-linejoin:miter;stroke-miterlimit:4;stroke-dasharray:none;stroke-opacity:0.78431373"
     d="m 896.92654,305.78679 h 2.4839 v 7.81748 c 4.164,0 8.8172,0 12.6021,0 v -7.81748 h 2.4838 c -2.7365,-2.54478 -6.4194,-6.02 -8.7849,-8.1836 -2.8629,2.63179 -5.8803,5.47149 -8.7849,8.1836 z m 5.8566,0.13069 c 1.9375,0 4.1005,0 5.8566,0 v 4.99384 c -1.9355,0 -4.098,0 -5.8566,0 z"
     id="path3883"
     inkscape:connector-curvature="0"
     sodipodi:nodetypes="ccccccccccccc" />
  <circle
     style="fill:#44484c;fill-opacity:0.78440366;stroke:#ffffff;stroke-width:1;stroke-linecap:round;stroke-linejoin:round;stroke-miterlimit:4;stroke-dasharray:none;stroke-opacity:0.78431373"
     id="path3888"
     cx="928.71442"
     cy="228.13333"
     r="32.0625" />
  <circle
     id="path3892"
     style="fill:#393c3f;fill-opacity:0.78440366;stroke:#ffffff;stroke-width:0.99999994;stroke-linecap:round;stroke-linejoin:round;stroke-miterlimit:4;stroke-dasharray:none;stroke-opacity:0.78431373"
     cx="928.71442"
     cy="228.35574"
     r="22.484156" />
  <path
     style="fill:#ffffff;fill-opacity:0.78431373;stroke:#ffffff;stroke-width:0.03125;stroke-linecap:round;stroke-linejoin:round;stroke-miterlimit:4;stroke-dasharray:none;stroke-opacity:0.78431373"
     d="m 927.55244,202.01961 c 2e-4,-2.14499 0.01,-3.41233 0.016,-3.48046 0.03,-0.20675 0.1316,-0.40432 0.2892,-0.56195 0.4752,-0.4752 1.2834,-0.33419 1.5764,0.27505 0.1098,0.22838 0.1022,-0.0485 0.1025,3.71783 l 2e-4,3.40192 -0.7014,-8.2e-4 c -0.3858,-4.5e-4 -0.8323,0.004 -0.9922,0.0105 l -0.2908,0.0113 3e-4,-3.37331 z"
     id="path3899"
     inkscape:connector-curvature="0" />
  <path
     style="fill:#ffffff;fill-opacity:0.78431373;stroke:#ffffff;stroke-width:0.03125;stroke-linecap:round;stroke-linejoin:round;stroke-miterlimit:4;stroke-dasharray:none;stroke-opacity:0.78431373"
     d="m 928.43284,258.44042 c -0.3894,-0.0436 -0.7247,-0.33325 -0.8473,-0.73195 -0.024,-0.0793 -0.027,-0.33014 -0.031,-3.23924 l -0.01,-3.1533 0.2308,0.0127 c 0.127,0.007 0.5737,0.0127 0.9928,0.0127 h 0.7619 v 3.15625 3.15625 l -0.035,0.10157 c -0.1044,0.30532 -0.3456,0.54509 -0.6513,0.64749 -0.1,0.0334 -0.2894,0.0509 -0.4081,0.0376 v 0 z"
     id="path3901"
     inkscape:connector-curvature="0" />
  <path
     style="fill:#ffffff;fill-opacity:0.78431373;stroke:#ffffff;stroke-width:0.03125;stroke-linecap:round;stroke-linejoin:round;stroke-miterlimit:4;stroke-dasharray:none;stroke-opacity:0.78431373"
     d="m 951.69894,228.42367 c 0,-0.35469 -0.01,-0.80142 -0.013,-0.99274 l -0.013,-0.34784 3.2314,0.004 3.2315,0.004 0.1146,0.0419 c 0.4311,0.15748 0.6991,0.55501 0.6699,0.99393 -0.016,0.24326 -0.1116,0.45768 -0.2809,0.63065 -0.1328,0.13572 -0.2576,0.20774 -0.488,0.28161 -0.05,0.016 -0.7115,0.021 -3.2578,0.0246 l -3.1953,0.005 v -0.6449 0 z"
     id="path3903"
     inkscape:connector-curvature="0" />
  <path
     style="fill:#ffffff;fill-opacity:0.78431373;stroke:#ffffff;stroke-width:0.03125;stroke-linecap:round;stroke-linejoin:round;stroke-miterlimit:4;stroke-dasharray:none;stroke-opacity:0.78431373"
     d="m 899.02714,229.0515 c -0.2151,-0.0284 -0.4251,-0.1369 -0.5782,-0.2988 -0.5328,-0.56321 -0.264,-1.4625 0.4922,-1.64714 0.071,-0.0172 0.6891,-0.0211 3.4498,-0.0215 l 3.3639,-5.6e-4 -0.012,0.33203 c -0.01,0.18262 -0.012,0.62911 -0.012,0.9922 v 0.66016 l -3.3047,-0.002 c -1.8176,-0.001 -3.3469,-0.008 -3.3984,-0.0144 z"
     id="path3905"
     inkscape:connector-curvature="0" />
  <path
     style="fill:#ffffff;stroke:none;stroke-opacity:0.78431373"
     d="m 921.20894,88.653273 c 0,-0.011 1.2297,-1.8951 2.7327,-4.1899 l 2.7327,-4.1728 -2.4219,-3.741 c -1.332,-2.0575 -2.4524,-3.7844 -2.4897,-3.8374 l -0.068,-0.096 h 1.8741 1.8741 l 1.6069,2.5766 c 0.8838,1.4172 1.6223,2.5715 1.6411,2.5652 0.019,-0.011 0.7381,-1.1618 1.5984,-2.5678 l 1.564,-2.5565 1.8463,-0.011 c 1.0154,-0.011 1.8462,0 1.8462,0.011 0,0.011 -1.1131,1.7561 -2.4737,3.8803 -1.4161,2.2111 -2.4674,3.8862 -2.459,3.9184 0.01,0.031 1.2317,1.8881 2.7191,4.1272 1.4874,2.239 2.7044,4.08 2.7044,4.0912 0,0.011 -0.8636,0.019 -1.9192,0.019 h -1.9192 l -1.7839,-2.7879 c -1.4407,-2.2517 -1.7922,-2.7792 -1.827,-2.7417 -0.024,0.025 -0.8356,1.2807 -1.8041,2.7894 l -1.761,2.743 h -1.9067 c -1.0487,0 -1.9068,-0.011 -1.9068,-0.017 z"
     id="path3808"
     inkscape:connector-curvature="0" />
  <path
     style="fill:#ffffff;stroke:none;stroke-opacity:0.78431373"
     d="m 952.17754,119.73238 c 0.06,-0.1594 6.0657,-15.5775 6.142,-15.7691 l 0.087,-0.219 h 1.6913 1.6913 l 3.1969,7.9809 c 1.7583,4.3895 3.2049,8.0007 3.2147,8.025 0.014,0.035 -0.3352,0.042 -1.7274,0.034 l -1.7454,-0.01 -0.7027,-1.8308 -0.7027,-1.8308 -3.2235,0.01 -3.2235,0.01 -0.6646,1.831 -0.6646,1.8309 h -1.6961 c -1.6009,0 -1.6949,-0.01 -1.673,-0.061 z m 10.1023,-6.3252 c -0.01,-0.024 -0.5101,-1.3729 -1.1133,-2.9974 -0.6031,-1.6245 -1.1071,-2.9412 -1.1199,-2.9261 -0.017,0.02 -1.3062,3.548 -2.1646,5.9235 -0.013,0.034 0.4421,0.043 2.1993,0.043 1.7577,0 2.2118,-0.01 2.1985,-0.043 z"
     id="path3810"
     inkscape:connector-curvature="0" />
  <path
     style="fill:#ffffff;stroke:none;stroke-opacity:0.78431373"
     d="m 922.58264,143.51978 v -8.0101 l 3.9597,0.017 c 3.9479,0.017 4.3741,0.03 5.1658,0.15 1.2013,0.1824 2.1874,0.7962 2.8382,1.7668 0.9894,1.4755 0.8297,3.4004 -0.3893,4.6926 -0.2842,0.3013 -0.5564,0.5122 -0.9357,0.7248 l -0.2945,0.165 0.2385,0.079 c 0.5815,0.1918 1.1967,0.5442 1.6096,0.9222 0.4846,0.4434 0.9019,1.1471 1.0833,1.8267 0.083,0.3094 0.092,0.4089 0.095,0.9908 0,0.5046 -0.011,0.7103 -0.061,0.9359 -0.202,0.9189 -0.6473,1.7732 -1.2383,2.3756 -0.7564,0.7709 -1.6842,1.1619 -3.0094,1.2683 -0.6601,0.053 -3.8754,0.1033 -6.6759,0.1044 h -2.3863 v -8.0101 z m 7.9838,5.2825 c 0.7397,-0.061 1.1341,-0.2114 1.5249,-0.58 0.4041,-0.3812 0.5715,-0.8216 0.5702,-1.4999 0,-1.0456 -0.5682,-1.7782 -1.5522,-2.0082 -0.5699,-0.1332 -0.9044,-0.1511 -3.1335,-0.1676 l -2.1765,-0.016 v 2.1535 2.1536 h 2.1765 c 1.197,-3e-4 2.3628,-0.016 2.5906,-0.035 v 0 z m -1.2882,-6.9206 c 1.1673,-0.033 1.401,-0.067 1.8218,-0.2663 0.4402,-0.2088 0.7503,-0.5556 0.8968,-1.003 0.1002,-0.3058 0.1,-0.9302 -10e-4,-1.241 -0.1887,-0.5831 -0.6217,-0.9586 -1.2873,-1.1163 -0.2076,-0.049 -0.5707,-0.059 -2.5755,-0.072 l -2.3338,-0.014 v 1.8731 1.8732 h 1.2149 c 0.6683,0 1.687,-0.015 2.2639,-0.031 v 0 z"
     id="path3814"
     inkscape:connector-curvature="0" />
  <path
     style="fill:#ffffff;stroke:none;stroke-opacity:0.78431373"
     d="m 895.68474,116.73468 v -3.3693 l -2.913,-4.6053 c -1.6022,-2.5328 -2.9131,-4.6117 -2.9131,-4.6196 0,-0.01 0.836,-0.014 1.8577,-0.014 l 1.8578,4e-4 1.8838,3.1716 c 1.4011,2.3587 1.8938,3.1611 1.9224,3.1307 0.021,-0.022 0.8587,-1.4499 1.8611,-3.1719 l 1.8224,-3.1311 h 1.8323 1.8322 l -0.05,0.079 c -0.028,0.043 -1.3481,2.1286 -2.9345,4.6344 l -2.8842,4.5559 v 3.3546 3.3546 h -1.5874 -1.5873 v -3.3694 z"
     id="path3816"
     inkscape:connector-curvature="0" />
</svg>
