<?xml version="1.0" encoding="UTF-8" standalone="no"?>
<svg
   xmlns:dc="http://purl.org/dc/elements/1.1/"
   xmlns:cc="http://creativecommons.org/ns#"
   xmlns:rdf="http://www.w3.org/1999/02/22-rdf-syntax-ns#"
   xmlns:svg="http://www.w3.org/2000/svg"
   xmlns="http://www.w3.org/2000/svg"
   xmlns:sodipodi="http://sodipodi.sourceforge.net/DTD/sodipodi-0.dtd"
   xmlns:inkscape="http://www.inkscape.org/namespaces/inkscape"
   id="Layer_1"
   data-name="Layer 1"
   viewBox="0 0 1002 697.15197"
   version="1.1"
   sodipodi:docname="yuzu_pro_controller_dark.svg"
   inkscape:version="0.92.5 (2060ec1f9f, 2020-04-08)"
   width="1002"
   height="697.15198">
  <metadata
     id="metadata1048">
    <rdf:RDF>
      <cc:Work
         rdf:about="">
        <dc:format>image/svg+xml</dc:format>
        <dc:type
           rdf:resource="http://purl.org/dc/dcmitype/StillImage" />
        <dc:title />
      </cc:Work>
    </rdf:RDF>
  </metadata>
  <sodipodi:namedview
     pagecolor="#ffffff"
     bordercolor="#666666"
     borderopacity="1"
     objecttolerance="10"
     gridtolerance="10"
     guidetolerance="10"
     inkscape:pageopacity="0"
     inkscape:pageshadow="2"
     inkscape:window-width="3440"
     inkscape:window-height="1417"
     id="namedview1046"
     showgrid="false"
     inkscape:pagecheckerboard="true"
     inkscape:zoom="1.4142136"
     inkscape:cx="208.1179"
     inkscape:cy="321.53556"
     inkscape:window-x="1912"
     inkscape:window-y="-8"
     inkscape:window-maximized="1"
     inkscape:current-layer="Layer_1"
     fit-margin-top="0"
     fit-margin-left="0"
     fit-margin-right="0"
     fit-margin-bottom="0" />
  <defs
     id="defs941">
    <style
       id="style939">.cls-1{opacity:0.1;}.cls-2{fill:#1abc9c;}.cls-3{fill:#ccc;}.cls-4{fill:#fff;}</style>
  </defs>
  <path
     class="cls-4"
     d="m 631.45451,426.45684 c -31.53639,-1.9e-4 -59.96762,-18.99753 -72.03525,-48.13289 -12.06761,-29.1353 -5.39494,-62.67047 16.90463,-84.9699 22.29957,-22.29943 55.83479,-28.9719 84.97001,-16.90411 29.13528,12.06782 48.13244,40.49917 48.13244,72.03556 -0.0485,43.04245 -34.92938,77.92306 -77.97183,77.97134 z"
     id="path979"
     style="fill:none;fill-opacity:1;stroke:#ffffff;stroke-width:2;stroke-miterlimit:4;stroke-dasharray:none;stroke-opacity:1"
     inkscape:connector-curvature="0"
     sodipodi:nodetypes="cssscc"
     inkscape:label="RightStickOuter" />
  <path
     class="cls-4"
     d="m 224.625,288.45029 c -31.53643,0 -59.96781,-18.99721 -72.0356,-48.13255 -12.06777,-29.13528 -5.39521,-62.67053 16.90432,-84.97007 22.29953,-22.29953 55.83478,-28.97209 84.97006,-16.90432 29.13534,12.06778 48.13256,40.49916 48.13256,72.03559 -0.0486,43.04223 -34.92911,77.92274 -77.97134,77.97135 z"
     id="path981"
     style="fill:none;fill-opacity:1;stroke:#ffffff;stroke-width:2;stroke-miterlimit:4;stroke-dasharray:none;stroke-opacity:1"
     inkscape:connector-curvature="0"
     sodipodi:nodetypes="cssscc"
     inkscape:label="LeftStickOuter" />
  <path
     class="cls-4"
     d="m 650.21778,23.68361 0.0165,0.19336 c -49.97444,-2.138 -102.88831,-2.51085 -148.52724,-2.51085 -45.64869,0 -93.9285,-0.05854 -143.90245,2.079456 -0.0834,0.005 -1.47023,-0.0125 -1.54473,-0.0502 -0.0532,-0.0259 -6.45436,-2.89812 -13.68298,-6.23072 -0.38466,-0.235318 -1.82728,-0.745271 -1.32099,-0.796031 3.46032,-0.299437 49.31323,-4.538845 160.45112,-4.538845 111.80616,0 158.2679,4.372971 160.23273,4.571991 0.50593,0.0517 -0.15339,0.406693 -0.6154,0.619253 -7.22812,3.3326 -13.86182,6.696521 -13.9145,6.722381 -0.0683,0.0335 3.40321,0.133765 3.32715,0.133565 z"
     id="path983"
     style="fill:none;fill-opacity:1;stroke:#ffffff;stroke-width:2;stroke-miterlimit:4;stroke-dasharray:none;stroke-opacity:1"
     inkscape:connector-curvature="0"
     sodipodi:nodetypes="ccsccccsccccc"
     inkscape:label="ControllerTop" />
  <path
     class="cls-4"
     d="m 741.86753,497.30394 c -0.0858,-7e-5 -0.17013,-0.0222 -0.24487,-0.0644 -8.62321,-4.84087 -18.661,-7.195 -30.68709,-7.195 h -419.8687 c -12.04118,0 -22.0868,2.35409 -30.7105,7.195 -0.16378,0.0916 -0.36497,0.084 -0.52145,-0.0195 C 219.0266,470.04506 110.577,314.82484 56.75235,224.08155 c -0.06388,-0.1079 -0.08493,-0.23585 -0.059,-0.35853 11.35,-53.32363 20.71951,-90.04374 27.09546,-106.19068 1.214934,-3.07252 2.874738,-5.94985 4.92623,-8.5398 l 12.7158,-16.183 c 2.89905,-3.69215 6.51192,-6.76271 10.62317,-9.02857 0.0133,-0.007 0.027,-0.0141 0.041,-0.02 l 0.005,-0.003 c 7.05739,-3.918 18.49078,-10.65975 32.87972,-20.52733 32.00608,-21.98338 99.86936,-34.89723 207.46733,-39.48005 49.5847,-2.13361 100.57618,-2.31214 148.55457,-2.31214 47.96717,0 98.94744,0.17853 148.53165,2.31214 107.61406,4.58331 175.48467,17.49764 207.49075,39.48054 14.39576,9.8788 25.83842,16.62791 32.90264,20.55025 4.1075,2.24222 7.71458,5.29858 10.60073,8.98223 l 12.73726,16.205 c 2.06275,2.59612 3.73079,5.48264 4.95013,8.56614 6.37254,16.13572 15.74207,52.85583 27.095,106.18824 0.0262,0.12273 0.005,0.25085 -0.0595,0.35853 -53.82711,90.74954 -162.28798,245.97325 -203.10556,273.13844 -0.0821,0.0546 -0.17847,0.0838 -0.27707,0.0839 z"
     id="path985"
     style="fill:none;fill-opacity:1;stroke:#ffffff;stroke-width:2;stroke-miterlimit:4;stroke-dasharray:none;stroke-opacity:1"
     inkscape:connector-curvature="0"
     sodipodi:nodetypes="ccssccccccccccccsccccccccccc"
     inkscape:label="ControllerMiddle" />
  <path
     class="cls-4"
     d="M 94.27245,696.15196 C 41.09857,696.15196 1,642.67419 1,571.75784 c 0,-48.68471 29.93491,-227.05956 55.6865,-348.024 0.09511,-0.44448 -0.04843,0.20825 0.184145,0.59878 53.805085,90.67544 162.555365,245.97618 203.219775,273.05847 0.31045,0.20721 -0.10529,-0.0158 -0.43095,0.16668 -17.55569,9.82123 -26.81859,28.68703 -38.36271,50.89041 -3.10285,5.96767 -6.31156,12.13923 -9.82806,18.45128 -7.2891,13.07481 -13.68553,26.133 -19.87075,38.761 -23.78432,48.55687 -44.32482,90.4915 -97.32553,90.4915 z"
     id="path987"
     style="fill:none;fill-opacity:1;stroke:#ffffff;stroke-width:2;stroke-miterlimit:4;stroke-dasharray:none;stroke-opacity:1"
     inkscape:connector-curvature="0"
     sodipodi:nodetypes="cscccccccsc"
     inkscape:label="ControllerBottomLeft" />
  <path
     class="cls-4"
     d="m 907.72706,696.15196 c -53.01729,0 -73.56413,-41.95706 -97.35674,-90.54032 -6.17644,-12.61238 -12.56361,-25.654 -19.83856,-38.71226 -3.517,-6.312 -6.7257,-12.48264 -9.82807,-18.4503 -11.54509,-22.20338 -21.51461,-41.37952 -39.0703,-51.20075 -0.32626,-0.18205 0.28071,0.0427 0.5918,-0.16419 40.66539,-27.08327 148.71823,-181.7218 202.52283,-272.39675 0.52455,-0.73386 0.41441,-0.4573 0.50824,-0.63929 0.18744,-0.27148 0.0134,-0.51559 0.0562,-0.31434 C 971.06509,344.69584 1001,523.07016 1001,571.75784 c 0,70.91635 -40.09857,124.39412 -93.27294,124.39412 z"
     id="path989"
     style="fill:none;fill-opacity:1;stroke:#ffffff;stroke-width:2;stroke-miterlimit:4;stroke-dasharray:none;stroke-opacity:1"
     inkscape:connector-curvature="0"
     sodipodi:nodetypes="sccccccccss"
     inkscape:label="ControllerBottomRight" />
  <path
     class="cls-2"
     d="m 112.09501,83.76099 c -0.69671,-2.2e-4 -1.17936,-0.69541 -0.93607,-1.34826 C 138.50757,9.10615 249.72008,1 297.37555,1 c 0.32195,0 0.64095,3.3e-4 0.957,10e-4 l 1.24046,0.002 c 6.58083,0 25.53111,8.08567 40.30882,14.88795 0.0385,0.0117 0.0761,0.0261 0.11268,0.0429 7.2447,3.34041 12.61092,5.95938 12.66409,5.98572 0.93132,0.45471 0.63938,1.85183 -0.39609,1.89556 -107.33407,4.5877 -174.94371,17.41618 -206.69223,39.21957 -14.567,10.00221 -25.98134,16.724 -32.99191,20.60147 -0.14789,0.082 -0.31425,0.12497 -0.48336,0.1248 z"
     id="path1017"
     style="fill:#44484c;fill-opacity:0.78431373;stroke:#ffffff;stroke-width:2;stroke-miterlimit:4;stroke-dasharray:none;stroke-opacity:1"
     inkscape:connector-curvature="0"
     sodipodi:nodetypes="ccsccccccccc"
     inkscape:label="ButtonL" />
  <path
     class="cls-2"
     d="m 891.28157,84.307552 c -0.16962,-1.3e-4 -0.46898,9.94e-4 -0.61741,-0.08107 -7.04862,-3.91113 -18.40874,-11.127199 -32.92161,-21.085039 -31.74853,-21.8029 -99.36451,-34.63187 -206.71419,-39.22006 -1.03444,-0.045 -1.32597,-1.44015 -0.39609,-1.89556 0.0537,-0.0263 5.42037,-2.64531 12.6641,-5.98572 21.62,-9.9075705 35.21966,-14.9308705 40.42247,-14.9308705 l 1.24,-0.002 c 0.31316,-0.001 0.638,-0.001 0.958,-0.001 47.6623,0 158.66248,9.9377685 186.01306,83.2672685 0.24382,0.65274 0.0485,-0.06598 -0.64833,-0.06595 z"
     id="path1019"
     style="fill:#44484c;fill-opacity:0.78431373;stroke:#ffffff;stroke-width:2;stroke-miterlimit:4;stroke-dasharray:none;stroke-opacity:1"
     inkscape:connector-curvature="0"
     sodipodi:nodetypes="ccccccccsccc"
     inkscape:label="ButtonR" />
  <path
     style="fill:#44484c;fill-opacity:0.78431374;stroke:#ffffff;stroke-width:2;stroke-miterlimit:4;stroke-dasharray:none;stroke-opacity:1"
     d="m 329.28516,276.12694 c -2.79571,0.003 -5.06129,2.26874 -5.06446,5.06445 v 41.61914 c -0.002,1.57408 -1.19373,2.8918 -2.75976,3.05078 -0.10189,0.0103 -0.20423,0.0155 -0.30664,0.0156 h -41.61914 c -2.79571,0.003 -5.06129,2.26874 -5.06446,5.06445 v 36.44727 c 0.003,2.79564 2.26882,5.06111 5.06446,5.06445 h 41.61914 c 1.69275,0.002 3.06452,1.37366 3.0664,3.06641 v 41.61914 c 0.003,2.79564 2.26882,5.06111 5.06446,5.06445 h 36.44726 c 0.11599,8e-5 0.23194,-0.004 0.34766,-0.0117 2.65462,-0.18543 4.71415,-2.39164 4.7168,-5.05273 v -41.61913 c 2.5e-4,-0.0704 0.003,-0.14074 0.008,-0.21094 0.11252,-1.60684 1.44782,-2.85346 3.05859,-2.85547 h 41.6211 c 0.11533,3e-5 0.23063,-0.004 0.3457,-0.0117 2.65462,-0.18544 4.71415,-2.39164 4.7168,-5.05273 v -36.44727 c 8e-5,-0.11598 -0.004,-0.23193 -0.0117,-0.34765 -0.18523,-2.65394 -2.39038,-4.71328 -5.05078,-4.7168 h -41.6211 c -1.69273,-0.002 -3.06447,-1.37368 -3.0664,-3.06641 v -41.61914 c -0.003,-2.7958 -2.26866,-5.06152 -5.06446,-5.06445 z"
     id="path1021"
     inkscape:connector-curvature="0"
     inkscape:label="DPad"
     sodipodi:nodetypes="cccccccccccccccccccccccccccccc" />
  <polygon
     class="cls-2"
     points="338.993,302.663 354.026,302.663 346.509,289.644 "
     id="polygon1037"
     style="fill:#ffffff;fill-opacity:1;stroke:#ffffff;stroke-opacity:1"
     transform="translate(1,2.42772)"
     inkscape:label="ArrowUp" />
  <polygon
     class="cls-2"
     points="338.993,390.812 354.026,390.812 346.509,403.831 "
     id="polygon1039"
     style="fill:#ffffff;fill-opacity:1;stroke:#ffffff;stroke-opacity:1"
     transform="translate(1,2.42772)"
     inkscape:label="ArrowDown" />
  <polygon
     class="cls-2"
     points="390.584,339.221 390.584,354.254 403.603,346.737 "
     id="polygon1041"
     style="fill:#ffffff;fill-opacity:1;stroke:#ffffff;stroke-opacity:1"
     transform="translate(1,2.42772)"
     inkscape:label="ArrowRight" />
  <polygon
     class="cls-2"
     points="302.435,339.221 302.435,354.254 289.416,346.737 "
     id="polygon1043"
     style="fill:#ffffff;fill-opacity:1;stroke:#ffffff;stroke-opacity:1"
     transform="translate(1,2.42772)"
     inkscape:label="ArrowLeft" />
  <circle
     style="fill:#44484c;fill-opacity:0.88235294;stroke:#ffffff;stroke-width:2.39999986;stroke-linecap:round;stroke-linejoin:round;stroke-miterlimit:4;stroke-dasharray:none;stroke-opacity:1"
     id="path3095"
     cx="765.22437"
     cy="141.85793"
     r="36.360973"
     inkscape:label="ButtonX" />
  <circle
     id="path3865"
     style="fill:#44484c;fill-opacity:0.88235294;stroke:#ffffff;stroke-width:2.39999986;stroke-linecap:round;stroke-linejoin:round;stroke-miterlimit:4;stroke-dasharray:none;stroke-opacity:1"
     cx="765.67682"
     cy="278.44281"
     r="36.360973"
     inkscape:label="ButtonB" />
  <circle
     transform="rotate(90)"
     id="path3867"
     style="fill:#44484c;fill-opacity:0.88235294;stroke:#ffffff;stroke-width:2.39999986;stroke-linecap:round;stroke-linejoin:round;stroke-miterlimit:4;stroke-dasharray:none;stroke-opacity:1"
     cx="211.13086"
     cy="-687.05206"
     r="36.360973"
     inkscape:label="ButtonY" />
  <circle
     style="fill:#44484c;fill-opacity:0.88235294;stroke:#ffffff;stroke-width:2.39999986;stroke-linecap:round;stroke-linejoin:round;stroke-miterlimit:4;stroke-dasharray:none;stroke-opacity:1"
     id="path3869"
     transform="rotate(90)"
     cx="210.07503"
     cy="-843.84839"
     r="36.360973"
     inkscape:label="ButtonA" />
  <path
     style="fill:#ffffff;stroke:none;stroke-width:2.4000001;stroke-opacity:1"
     d="m 747.66135,161.31666 c 0,-0.0264 2.95131,-4.54824 6.55851,-10.05576 l 6.5584,-10.01472 -5.8125,-8.9784 c -3.1968,-4.938 -5.88577,-9.08256 -5.97529,-9.20976 l -0.1632,-0.2304 h 4.49779 4.4979 l 3.8565,6.18384 c 2.1212,3.40128 3.8936,6.1716 3.9387,6.15648 0.046,-0.0264 1.7714,-2.78832 3.8361,-6.16272 l 3.7536,-6.1356 4.4312,-0.0264 c 2.4369,-0.0264 4.4308,0 4.4308,0.0264 0,0.0264 -2.6714,4.21464 -5.9368,9.31272 -3.3987,5.30664 -5.9218,9.32688 -5.9016,9.40416 0.024,0.0744 2.956,4.53144 6.5258,9.90528 3.5698,5.3736 6.4906,9.792 6.4906,9.81888 0,0.0264 -2.0727,0.0456 -4.6061,0.0456 h -4.6061 l -4.2814,-6.69096 c -3.4576,-5.40408 -4.3012,-6.67008 -4.3848,-6.58008 -0.058,0.06 -2.0054,3.07368 -4.3298,6.69456 l -4.2264,6.5832 h -4.5761 c -2.51685,0 -4.57629,-0.0264 -4.57629,-0.0408 z"
     id="path3808"
     inkscape:connector-curvature="0"
     inkscape:label="ButtonXInner" />
  <path
     style="fill:#ffffff;stroke:none;stroke-width:2.4000001;stroke-opacity:1"
     d="m 825.45516,228.96816 c 0.144,-0.38256 14.5577,-37.386 14.7408,-37.84584 l 0.2088,-0.5256 h 4.0591 4.0591 l 7.6726,19.15416 c 4.2199,10.5348 7.6918,19.20168 7.7153,19.26 0.034,0.084 -0.8045,0.1008 -4.1458,0.0816 l -4.1889,-0.024 -1.6865,-4.39392 -1.6865,-4.39392 -7.7364,0.024 -7.7364,0.024 -1.595,4.3944 -1.5951,4.39416 h -4.0706 c -3.8422,0 -4.0678,-0.024 -4.0152,-0.1464 z m 24.2455,-15.18048 c -0.024,-0.0576 -1.2242,-3.29496 -2.6719,-7.19376 -1.4474,-3.8988 -2.657,-7.05888 -2.6878,-7.02264 -0.041,0.048 -3.1348,8.5152 -5.195,14.2164 -0.031,0.0816 1.061,0.1032 5.2783,0.1032 4.2185,0 5.3083,-0.024 5.2764,-0.1032 z"
     id="path3810"
     inkscape:connector-curvature="0"
     inkscape:label="ButtonAInner" />
  <path
     style="fill:#ffffff;stroke:none;stroke-width:2.4000001;stroke-opacity:1"
     d="m 751.41076,279.27042 v -19.22424 l 9.5032,0.0408 c 9.475,0.0408 10.4979,0.072 12.398,0.36 2.8831,0.43776 5.2497,1.91088 6.8116,4.24032 2.3746,3.5412 1.9913,8.16096 -0.9343,11.26224 -0.6821,0.72312 -1.3353,1.22928 -2.2457,1.73952 l -0.7068,0.396 0.5724,0.1896 c 1.3956,0.46032 2.8721,1.30608 3.8631,2.21328 1.163,1.06416 2.1645,2.75304 2.5999,4.38408 0.1992,0.74256 0.2208,0.98136 0.228,2.37792 0,1.21104 -0.026,1.70472 -0.1464,2.24616 -0.4848,2.20536 -1.5535,4.25568 -2.9719,5.70144 -1.8154,1.85016 -4.0421,2.78856 -7.2226,3.04392 -1.5842,0.1272 -9.3009,0.24792 -16.0221,0.25056 h -5.7272 v -19.22424 z m 19.1611,12.678 c 1.7753,-0.1464 2.7218,-0.50736 3.6597,-1.392 0.9699,-0.91488 1.3716,-1.97184 1.3685,-3.59976 0,-2.50944 -1.3637,-4.26768 -3.7253,-4.81968 -1.3677,-0.31968 -2.1705,-0.36264 -7.5204,-0.40224 l -5.2236,-0.0384 v 5.1684 5.16864 h 5.2236 c 2.8728,-7.2e-4 5.6708,-0.0384 6.2175,-0.084 v 0 z m -3.0917,-16.60944 c 2.8015,-0.0792 3.3624,-0.1608 4.3723,-0.63912 1.0565,-0.50112 1.8007,-1.33344 2.1523,-2.4072 0.2405,-0.73392 0.24,-2.23248 0,-2.9784 -0.4528,-1.39944 -1.492,-2.30064 -3.0895,-2.67912 -0.4982,-0.1176 -1.3697,-0.1416 -6.1812,-0.1728 l -5.6011,-0.0336 v 4.49544 4.49568 h 2.9158 c 1.6039,0 4.0488,-0.036 5.4333,-0.0744 v 0 z"
     id="path3814"
     inkscape:connector-curvature="0"
     inkscape:label="ButtonBInner" />
  <path
     style="fill:#ffffff;stroke:none;stroke-width:2.4000001;stroke-opacity:1"
     d="m 683.3866,222.82951 v -8.08632 l -6.9912,-11.05272 c -3.84528,-6.07872 -6.99144,-11.06808 -6.99144,-11.08704 0,-0.024 2.0064,-0.0336 4.45848,-0.0336 l 4.45872,9.6e-4 4.52112,7.61184 c 3.36264,5.66088 4.54512,7.58664 4.61376,7.51368 0.0504,-0.0528 2.06088,-3.47976 4.46664,-7.61256 l 4.37376,-7.51464 h 4.39752 4.39728 l -0.12,0.1896 c -0.0672,0.1032 -3.23544,5.10864 -7.0428,11.12256 l -6.92208,10.93416 v 8.05104 8.05104 h -3.80976 -3.80952 v -8.08656 z"
     id="path3816"
     inkscape:connector-curvature="0"
     inkscape:label="ButtonYInner" />
  <circle
     id="path3879"
     style="fill:#44484c;fill-opacity:0.88235294;stroke:#ffffff;stroke-width:1.39999998;stroke-linecap:round;stroke-linejoin:round;stroke-miterlimit:4;stroke-dasharray:none;stroke-opacity:1"
     cx="572.14709"
     cy="209.15627"
     r="23.561281"
     inkscape:label="ButtonHome2" />
  <circle
     style="fill:#3a3d40;fill-opacity:0.56122448;stroke:#ffffff;stroke-width:1.39999998;stroke-linecap:round;stroke-linejoin:round;stroke-miterlimit:4;stroke-dasharray:none;stroke-opacity:1"
     id="path3881"
     cx="572.14709"
     cy="209.37057"
     r="17.59697"
     inkscape:label="ButtonHomeInner" />
  <path
     style="fill:#ffffff;stroke:#ffffff;stroke-width:1.39999998;stroke-linecap:butt;stroke-linejoin:miter;stroke-miterlimit:4;stroke-dasharray:none;stroke-opacity:1;fill-opacity:1"
     d="m 559.76925,208.43308 h 3.47746 v 10.94448 c 5.8296,0 12.34408,0 17.64294,0 v -10.94448 h 3.47732 c -3.8311,-3.56269 -8.98716,-8.428 -12.29886,-11.45704 -4.00806,3.68451 -8.23242,7.66009 -12.29886,11.45704 z m 8.19924,0.18297 c 2.7125,0 5.7407,0 8.19924,0 v 6.99138 c -2.7097,0 -5.7372,0 -8.19924,0 z"
     id="path3883"
     inkscape:connector-curvature="0"
     sodipodi:nodetypes="ccccccccccccc"
     inkscape:label="ButtonHomeInner2" />
  <rect
     style="fill:#44484c;fill-opacity:0.77981651;stroke:#ffffff;stroke-width:1.45000005;stroke-linecap:round;stroke-linejoin:round;stroke-miterlimit:4;stroke-dasharray:none;stroke-opacity:1"
     id="rect3919"
     width="37.337502"
     height="36.431252"
     x="410.89297"
     y="192.1021"
     ry="4.8937502"
     inkscape:label="ButtonCapture" />
  <circle
     style="fill:#ffffff;stroke:#ffffff;stroke-width:1.45000005;stroke-linecap:round;stroke-linejoin:round;stroke-miterlimit:4;stroke-dasharray:none;stroke-opacity:1;fill-opacity:1"
     id="path3921"
     cx="429.42581"
     cy="210.6349"
     r="12.823438"
     inkscape:label="ButtonCaptureInner" />
  <circle
     style="fill:#44484c;fill-opacity:0.78440366;stroke:#ffffff;stroke-width:1.77999997;stroke-linecap:round;stroke-linejoin:round;stroke-miterlimit:4;stroke-dasharray:none;stroke-opacity:1"
     id="path3888"
     cx="630.7608"
     cy="349.10751"
     r="57.071251"
     inkscape:label="RightStick" />
  <circle
     id="path3892"
     style="fill:#383c3f;fill-opacity:0.78440368;stroke:#ffffff;stroke-width:1.77999985;stroke-linecap:round;stroke-linejoin:round;stroke-miterlimit:4;stroke-dasharray:none;stroke-opacity:1"
     cx="630.7608"
     cy="349.50342"
     r="40.021797"
     inkscape:label="RightStickInner" />
  <circle
     style="fill:#44484c;fill-opacity:0.78440366;stroke:#ffffff;stroke-width:1.77999997;stroke-linecap:round;stroke-linejoin:round;stroke-miterlimit:4;stroke-dasharray:none;stroke-opacity:1"
     id="path3888-1"
     cx="224.9761"
     cy="211.08371"
     r="57.071251"
     inkscape:label="LeftStickInner" />
  <circle
     id="path3892-6"
     style="fill:#383c3f;fill-opacity:0.78440368;stroke:#ffffff;stroke-width:1.77999985;stroke-linecap:round;stroke-linejoin:round;stroke-miterlimit:4;stroke-dasharray:none;stroke-opacity:1"
     cx="224.9761"
     cy="211.47961"
     r="40.021797"
     inkscape:label="LeftStick" />
  <circle
     transform="rotate(90)"
     id="path3867-0"
     style="fill:#44484c;fill-opacity:0.88235294;stroke:#ffffff;stroke-width:1.48799992;stroke-linecap:round;stroke-linejoin:round;stroke-miterlimit:4;stroke-dasharray:none;stroke-opacity:1"
     cx="135.08673"
     cy="-625.01733"
     r="22.543804"
     inkscape:label="ButtonPlus" />
  <circle
     transform="rotate(90)"
     id="path3867-0-7"
     style="fill:#44484c;fill-opacity:0.88235294;stroke:#ffffff;stroke-width:1.48799992;stroke-linecap:round;stroke-linejoin:round;stroke-miterlimit:4;stroke-dasharray:none;stroke-opacity:1"
     cx="134.93182"
     cy="-376.63995"
     r="22.543804"
     inkscape:label="ButtonMinus" />
  <path
     style="fill:#ffffff;fill-opacity:0.88235295;stroke:#ffffff;stroke-width:1px;stroke-linecap:round;stroke-linejoin:round;stroke-opacity:1"
     d="m 614.32316,131.77693 h 7.6077 v -7.51301 h 6.3134 v 7.54457 h 7.4815 v 6.31346 h -7.4499 v 7.79711 h -6.4081 v -7.79711 h -7.5131 z"
     id="path3093"
     inkscape:connector-curvature="0"
     inkscape:label="Plus" />
  <rect
     style="fill:#ffffff;fill-opacity:0.88235295;stroke:#ffffff;stroke-width:1;stroke-linecap:round;stroke-linejoin:round;stroke-miterlimit:4;stroke-dasharray:none;stroke-opacity:1"
     id="rect3890"
     width="22.1875"
     height="6.375"
     x="365.5535"
     y="131.73494"
     inkscape:label="Minus" />
</svg>
