<?xml version="1.0" encoding="UTF-8" standalone="no"?>
<!-- Created with Inkscape (http://www.inkscape.org/) -->

<svg
   xmlns:dc="http://purl.org/dc/elements/1.1/"
   xmlns:cc="http://creativecommons.org/ns#"
   xmlns:rdf="http://www.w3.org/1999/02/22-rdf-syntax-ns#"
   xmlns:svg="http://www.w3.org/2000/svg"
   xmlns="http://www.w3.org/2000/svg"
   xmlns:sodipodi="http://sodipodi.sourceforge.net/DTD/sodipodi-0.dtd"
   xmlns:inkscape="http://www.inkscape.org/namespaces/inkscape"
   width="425.19434"
   height="311.88974"
   id="svg2"
   version="1.1"
   inkscape:version="0.92.5 (2060ec1f9f, 2020-04-08)"
   sodipodi:docname="yuzu_single_joycon_right_dark.svg">
  <defs
     id="defs4">
    <filter
       inkscape:collect="always"
       id="filter3994"
       style="color-interpolation-filters:sRGB">
      <feGaussianBlur
         inkscape:collect="always"
         stdDeviation="0.95"
         id="feGaussianBlur3996" />
    </filter>
  </defs>
  <sodipodi:namedview
     id="base"
     pagecolor="#19232d"
     bordercolor="#666666"
     borderopacity="1.0"
     inkscape:pageopacity="0"
     inkscape:pageshadow="2"
     inkscape:zoom="2"
     inkscape:cx="331.35098"
     inkscape:cy="88.80465"
     inkscape:document-units="px"
     inkscape:current-layer="g6867"
     showgrid="false"
     inkscape:window-width="2610"
     inkscape:window-height="1256"
     inkscape:window-x="2677"
     inkscape:window-y="81"
     inkscape:window-maximized="0"
     inkscape:pagecheckerboard="true"
     inkscape:snap-to-guides="true"
     fit-margin-top="0"
     fit-margin-left="0"
     fit-margin-right="0"
     fit-margin-bottom="0" />
  <metadata
     id="metadata7">
    <rdf:RDF>
      <cc:Work
         rdf:about="">
        <dc:format>image/svg+xml</dc:format>
        <dc:type
           rdf:resource="http://purl.org/dc/dcmitype/StillImage" />
        <dc:title />
      </cc:Work>
    </rdf:RDF>
  </metadata>
  <g
     inkscape:label="Livello 1"
     inkscape:groupmode="layer"
     id="layer1"
     transform="translate(-324.63602,-406.97811)">
    <g
       id="g6867">
      <path
         inkscape:connector-curvature="0"
         id="path3822"
         d="m 649.40264,569.24407 c 0,-1.2686 -0.70758,-2.07812 -1.8125,-2.07812 h -30.53711 c -1.16425,0 -2.16602,0.73051 -2.16602,2.16601 v 3.20508 c 0.0592,0.006 0.11437,0.0215 0.17578,0.0215 l 34.03125,-0.125 c 0.10423,0 0.20606,-0.0211 0.3086,-0.041 z"
         style="fill:#999595;fill-opacity:0.78431374;stroke:#ffffff;stroke-width:1px;stroke-linecap:butt;stroke-linejoin:miter;stroke-opacity:0.78431374" />
      <path
         inkscape:connector-curvature="0"
         id="path3824"
         d="m 480.15264,569.33196 c 0,-1.4355 -1.00177,-2.16601 -2.16602,-2.16601 h -30.53711 c -1.10492,0 -1.8125,0.80952 -1.8125,2.07812 v 3.29883 c 0.0408,0.003 0.0771,0.0156 0.11914,0.0156 h 34.39649 z"
         style="fill:#999595;fill-opacity:0.78431374;stroke:#ffffff;stroke-width:1px;stroke-linecap:butt;stroke-linejoin:miter;stroke-opacity:0.78431374" />
      <path
         inkscape:connector-curvature="0"
         id="path3820"
         d="m 721.08622,568.71055 c 0,-1.0615 -0.81907,-1.5471 -1.80078,-1.5371 H 659.4788 c -6.23633,0 -8.04088,5.2597 -10.38476,5.2597 l -34.03125,0.125 c -2.65324,0 -3.12092,-5.2597 -10.07617,-5.2597 H 490.43583 c -7.01664,0 -7.62069,5.2597 -10.07617,5.2597 h -34.60351 c -2.72144,0 -2.8282,-5.3886 -11.44727,-5.3886 h -65.24219 c -1.0104,0 -1.70312,0.8058 -1.70312,1.7011 v 4.8809 c 0,1.108 2.62815,2.416 4.18555,2.416 h 13.9375 v 5.1875 h 335.5996 v -12.6406 z"
         style="fill:#44484c;fill-opacity:0.78440366;stroke:#ffffff;stroke-width:1px;stroke-linecap:butt;stroke-linejoin:miter;stroke-opacity:0.78431374" />
      <path
         inkscape:connector-curvature="0"
         id="path3818"
         d="m 749.33037,606.85505 c 0,-1.3725 -1.39936,-2.6562 -2.65625,-2.6562 h -3.09375 v 28.9492 c 0,22.2807 -17.04697,62.864 -53.27539,78.4199 v 3.0313 c 0,1.8434 2.12408,1.7403 3.18164,1.457 23.18219,-6.2117 55.84375,-42.4577 55.84375,-82.9512 z"
         style="fill:#44484c;fill-opacity:0.78899087;stroke:#ffffff;stroke-width:1px;stroke-linecap:butt;stroke-linejoin:miter;stroke-opacity:0.78431374" />
      <path
         sodipodi:nodetypes="ccccccccc"
         inkscape:connector-curvature="0"
         id="path3923"
         d="M 740.33029,581.35545 H 327.64282 c -1.0235,0 -1.7969,0.5059 -1.7969,1.7969 v 49.6406 c 0,51.6795 45.69766,85.0749 85.07485,85.0749 h 247.94077 c 57.88508,0 84.71894,-56.7644 84.71894,-84.719 v -48.7906 c 0,-2.4861 -1.36797,-3.0028 -3.25019,-3.0028 z"
         style="fill:none;fill-opacity:1;stroke:#ffffff;stroke-width:1.5;stroke-linecap:butt;stroke-linejoin:miter;stroke-miterlimit:4;stroke-dasharray:none;stroke-opacity:0.78431374" />
      <path
         inkscape:connector-curvature="0"
         id="path3093"
         d="m 705.86371,592.63525 v 7.6077 h 7.51301 v 6.3134 h -7.54457 v 7.4815 h -6.31346 v -7.4499 h -7.79711 v -6.4081 h 7.79711 v -7.5131 z"
         style="fill:#44484c;fill-opacity:0.88235294;stroke:#ffffff;stroke-width:1px;stroke-linecap:round;stroke-linejoin:round;stroke-opacity:0.78431374" />
      <circle
         r="15.150405"
         cy="-669.82446"
         cx="645.10553"
         id="path3095"
         style="fill:#44484c;fill-opacity:0.88235294;stroke:#ffffff;stroke-width:0.99999994;stroke-linecap:round;stroke-linejoin:round;stroke-miterlimit:4;stroke-dasharray:none;stroke-opacity:0.78431374"
         transform="rotate(90)" />
      <circle
         r="15.150405"
         cy="-607.19501"
         cx="645.10553"
         style="fill:#44484c;fill-opacity:0.88235294;stroke:#ffffff;stroke-width:0.99999994;stroke-linecap:round;stroke-linejoin:round;stroke-miterlimit:4;stroke-dasharray:none;stroke-opacity:0.78431374"
         id="path3865"
         transform="rotate(90)" />
      <circle
         r="15.150405"
         cy="-613.79071"
         cx="-638.5097"
         style="fill:#44484c;fill-opacity:0.88235294;stroke:#ffffff;stroke-width:0.99999994;stroke-linecap:round;stroke-linejoin:round;stroke-miterlimit:4;stroke-dasharray:none;stroke-opacity:0.78431374"
         id="path3867"
         transform="scale(-1)" />
      <circle
         r="15.150405"
         cy="-676.4201"
         cx="-638.5097"
         transform="scale(-1)"
         id="path3869"
         style="fill:#44484c;fill-opacity:0.88235294;stroke:#ffffff;stroke-width:0.99999994;stroke-linecap:round;stroke-linejoin:round;stroke-miterlimit:4;stroke-dasharray:none;stroke-opacity:0.78431374" />
      <circle
         r="16.829487"
         cy="-444.06656"
         cx="622.3465"
         style="fill:#999595;fill-opacity:0.78440366;stroke:#ffffff;stroke-width:1;stroke-linecap:round;stroke-linejoin:round;stroke-miterlimit:4;stroke-dasharray:none;stroke-opacity:0.78431374"
         id="path3879"
         transform="rotate(90)" />
      <circle
         r="12.569263"
         cy="-443.91348"
         cx="622.3465"
         id="path3881"
         style="fill:#3a3d40;fill-opacity:0.78440366;stroke:#ffffff;stroke-width:1;stroke-linecap:round;stroke-linejoin:round;stroke-miterlimit:4;stroke-dasharray:none;stroke-opacity:0.78431374"
         transform="rotate(90)" />
      <path
         sodipodi:nodetypes="ccccccccccccc"
         inkscape:connector-curvature="0"
         id="path3883"
         d="m 444.58312,613.50525 v 2.4839 h -7.81748 c 0,4.164 0,8.8172 0,12.6021 h 7.81748 v 2.4838 c 2.54478,-2.7365 6.02,-6.4194 8.1836,-8.7849 -2.63179,-2.8629 -5.47149,-5.8803 -8.1836,-8.7849 z m -0.13069,5.8566 c 0,1.9375 0,4.1005 0,5.8566 h -4.99384 c 0,-1.9355 0,-4.098 0,-5.8566 z"
         style="fill:#ffffff;stroke:#ffffff;stroke-width:1;stroke-linecap:butt;stroke-linejoin:miter;stroke-miterlimit:4;stroke-dasharray:none;stroke-opacity:0.78431374;fill-opacity:1" />
      <circle
         r="32.0625"
         cy="-522.23657"
         cx="645.29303"
         id="path3888"
         style="fill:#44484c;fill-opacity:0.78440366;stroke:#ffffff;stroke-width:1;stroke-linecap:round;stroke-linejoin:round;stroke-miterlimit:4;stroke-dasharray:none;stroke-opacity:0.78431374"
         transform="rotate(90)" />
      <circle
         r="22.484156"
         cy="-522.01416"
         cx="645.29303"
         style="fill:#393b3f;fill-opacity:0.78440368;stroke:#ffffff;stroke-width:0.99999994;stroke-linecap:round;stroke-linejoin:round;stroke-miterlimit:4;stroke-dasharray:none;stroke-opacity:0.78431374"
         id="path3892"
         transform="rotate(90)" />
      <path
         inkscape:connector-curvature="0"
         id="path3899"
         d="m 548.35029,644.13115 c 2.14499,2e-4 3.41233,0.01 3.48046,0.016 0.20675,0.03 0.40432,0.1316 0.56195,0.2892 0.4752,0.4752 0.33419,1.2834 -0.27505,1.5764 -0.22838,0.1098 0.0485,0.1022 -3.71783,0.1025 l -3.40192,2e-4 8.2e-4,-0.7014 c 4.5e-4,-0.3858 -0.004,-0.8323 -0.0105,-0.9922 l -0.0113,-0.2908 3.37331,3e-4 z"
         style="fill:#ffffff;stroke:#ffffff;stroke-width:0.03125;stroke-linecap:round;stroke-linejoin:round;stroke-miterlimit:4;stroke-dasharray:none;stroke-opacity:0.78431374;fill-opacity:1" />
      <path
         inkscape:connector-curvature="0"
         id="path3901"
         d="m 491.92949,645.01155 c 0.0436,-0.3894 0.33325,-0.7247 0.73195,-0.8473 0.0793,-0.024 0.33014,-0.027 3.23924,-0.031 l 3.1533,-0.01 -0.0127,0.2308 c -0.007,0.127 -0.0127,0.5737 -0.0127,0.9928 v 0.7619 h -3.15625 -3.15625 l -0.10157,-0.035 c -0.30532,-0.1044 -0.54509,-0.3456 -0.64749,-0.6513 -0.0334,-0.1 -0.0509,-0.2894 -0.0376,-0.4081 v 0 z"
         style="fill:#ffffff;fill-opacity:1;stroke:#ffffff;stroke-width:0.03125;stroke-linecap:round;stroke-linejoin:round;stroke-miterlimit:4;stroke-dasharray:none;stroke-opacity:0.78431374" />
      <path
         inkscape:connector-curvature="0"
         id="path3903"
         d="m 521.94623,668.27765 c 0.35469,0 0.80142,-0.01 0.99274,-0.013 l 0.34784,-0.013 -0.004,3.2314 -0.004,3.2315 -0.0419,0.1146 c -0.15748,0.4311 -0.55501,0.6991 -0.99393,0.6699 -0.24326,-0.016 -0.45768,-0.1116 -0.63065,-0.2809 -0.13572,-0.1328 -0.20774,-0.2576 -0.28161,-0.488 -0.016,-0.05 -0.021,-0.7115 -0.0246,-3.2578 l -0.005,-3.1953 h 0.6449 v 0 z"
         style="fill:#ffffff;fill-opacity:1;stroke:#ffffff;stroke-width:0.03125;stroke-linecap:round;stroke-linejoin:round;stroke-miterlimit:4;stroke-dasharray:none;stroke-opacity:0.78431374" />
      <path
         inkscape:connector-curvature="0"
         id="path3905"
         d="m 521.3184,615.60585 c 0.0284,-0.2151 0.1369,-0.4251 0.2988,-0.5782 0.56321,-0.5328 1.4625,-0.264 1.64714,0.4922 0.0172,0.071 0.0211,0.6891 0.0215,3.4498 l 5.6e-4,3.3639 -0.33203,-0.012 c -0.18262,-0.01 -0.62911,-0.012 -0.9922,-0.012 h -0.66016 l 0.002,-3.3047 c 0.001,-1.8176 0.008,-3.3469 0.0144,-3.3984 z"
         style="fill:#ffffff;fill-opacity:1;stroke:#ffffff;stroke-width:0.03125;stroke-linecap:round;stroke-linejoin:round;stroke-miterlimit:4;stroke-dasharray:none;stroke-opacity:0.78431374" />
      <path
         inkscape:connector-curvature="0"
         id="path3808"
         d="m 661.71662,637.78765 c 0.011,0 1.8951,1.2297 4.1899,2.7327 l 4.1728,2.7327 3.741,-2.4219 c 2.0575,-1.332 3.7844,-2.4524 3.8374,-2.4897 l 0.096,-0.068 v 1.8741 1.8741 l -2.5766,1.6069 c -1.4172,0.8838 -2.5715,1.6223 -2.5652,1.6411 0.011,0.019 1.1618,0.7381 2.5678,1.5984 l 2.5565,1.564 0.011,1.8463 c 0.011,1.0154 0,1.8462 -0.011,1.8462 -0.011,0 -1.7561,-1.1131 -3.8803,-2.4737 -2.2111,-1.4161 -3.8862,-2.4674 -3.9184,-2.459 -0.031,0.01 -1.8881,1.2317 -4.1272,2.7191 -2.239,1.4874 -4.08,2.7044 -4.0912,2.7044 -0.011,0 -0.019,-0.8636 -0.019,-1.9192 v -1.9192 l 2.7879,-1.7839 c 2.2517,-1.4407 2.7792,-1.7922 2.7417,-1.827 -0.025,-0.024 -1.2807,-0.8356 -2.7894,-1.8041 l -2.743,-1.761 v -1.9067 c 0,-1.0487 0.011,-1.9068 0.017,-1.9068 z"
         style="fill:#ffffff;stroke:#ffffff;stroke-opacity:0.78431374" />
      <path
         inkscape:connector-curvature="0"
         id="path3810"
         d="m 630.63752,668.75625 c 0.1594,0.06 15.5775,6.0657 15.7691,6.142 l 0.219,0.087 v 1.6913 1.6913 l -7.9809,3.1969 c -4.3895,1.7583 -8.0007,3.2049 -8.025,3.2147 -0.035,0.014 -0.042,-0.3352 -0.034,-1.7274 l 0.01,-1.7454 1.8308,-0.7027 1.8308,-0.7027 -0.01,-3.2235 -0.01,-3.2235 -1.831,-0.6646 -1.8309,-0.6646 v -1.6961 c 0,-1.6009 0.01,-1.6949 0.061,-1.673 z m 6.3252,10.1023 c 0.024,-0.01 1.3729,-0.5101 2.9974,-1.1133 1.6245,-0.6031 2.9412,-1.1071 2.9261,-1.1199 -0.02,-0.017 -3.548,-1.3062 -5.9235,-2.1646 -0.034,-0.013 -0.043,0.4421 -0.043,2.1993 0,1.7577 0.01,2.2118 0.043,2.1985 z"
         style="fill:#ffffff;stroke:#ffffff;stroke-opacity:0.78431374" />
      <path
         inkscape:connector-curvature="0"
         id="path3814"
         d="m 606.85012,639.16135 h 8.0101 l -0.017,3.9597 c -0.017,3.9479 -0.03,4.3741 -0.15,5.1658 -0.1824,1.2013 -0.7962,2.1874 -1.7668,2.8382 -1.4755,0.9894 -3.4004,0.8297 -4.6926,-0.3893 -0.3013,-0.2842 -0.5122,-0.5564 -0.7248,-0.9357 l -0.165,-0.2945 -0.079,0.2385 c -0.1918,0.5815 -0.5442,1.1967 -0.9222,1.6096 -0.4434,0.4846 -1.1471,0.9019 -1.8267,1.0833 -0.3094,0.083 -0.4089,0.092 -0.9908,0.095 -0.5046,0 -0.7103,-0.011 -0.9359,-0.061 -0.9189,-0.202 -1.7732,-0.6473 -2.3756,-1.2383 -0.7709,-0.7564 -1.1619,-1.6842 -1.2683,-3.0094 -0.053,-0.6601 -0.1033,-3.8754 -0.1044,-6.6759 v -2.3863 h 8.0101 z m -5.2825,7.9838 c 0.061,0.7397 0.2114,1.1341 0.58,1.5249 0.3812,0.4041 0.8216,0.5715 1.4999,0.5702 1.0456,0 1.7782,-0.5682 2.0082,-1.5522 0.1332,-0.5699 0.1511,-0.9044 0.1676,-3.1335 l 0.016,-2.1765 h -2.1535 -2.1536 v 2.1765 c 3e-4,1.197 0.016,2.3628 0.035,2.5906 v 0 z m 6.9206,-1.2882 c 0.033,1.1673 0.067,1.401 0.2663,1.8218 0.2088,0.4402 0.5556,0.7503 1.003,0.8968 0.3058,0.1002 0.9302,0.1 1.241,-10e-4 0.5831,-0.1887 0.9586,-0.6217 1.1163,-1.2873 0.049,-0.2076 0.059,-0.5707 0.072,-2.5755 l 0.014,-2.3338 h -1.8731 -1.8732 v 1.2149 c 0,0.6683 0.015,1.687 0.031,2.2639 v 0 z"
         style="fill:#ffffff;stroke:#ffffff;stroke-opacity:0.78431374" />
      <path
         inkscape:connector-curvature="0"
         id="path3816"
         d="m 633.63522,612.26345 h 3.3693 l 4.6053,-2.913 c 2.5328,-1.6022 4.6117,-2.9131 4.6196,-2.9131 0.01,0 0.014,0.836 0.014,1.8577 l -4e-4,1.8578 -3.1716,1.8838 c -2.3587,1.4011 -3.1611,1.8938 -3.1307,1.9224 0.022,0.021 1.4499,0.8587 3.1719,1.8611 l 3.1311,1.8224 v 1.8323 1.8322 l -0.079,-0.05 c -0.043,-0.028 -2.1286,-1.3481 -4.6344,-2.9345 l -4.5559,-2.8842 h -3.3546 -3.3546 v -1.5874 -1.5873 h 3.3694 z"
         style="fill:#ffffff;stroke:#ffffff;stroke-opacity:0.78431374" />
      <path
         inkscape:connector-curvature="0"
         id="path3930"
         d="m 737.58037,447.40656 c -1.76097,-10.0105 -8.99887,-23.78565 -10.04297,-34.92774 0,-2.6897 -2.71081,-4.50781 -4.77344,-4.50781 h -9.01563 c -2.44483,0 -4.39741,2.88864 -6.45703,3.94727 v 8.65234 c 0,15.22521 17.34864,12.2491 25.29688,22.19336 1.82955,1.33679 3.52042,2.91709 4.99219,4.64258 z m -13.29493,-8.48047 c -0.10533,-0.0216 -0.21086,-0.0391 -0.3164,-0.0586 0.10559,0.0193 0.21103,0.0372 0.3164,0.0586 z m -1.375,-0.2168 c -0.12565,-0.0146 -0.25111,-0.0314 -0.37695,-0.043 0.12583,0.0114 0.25131,0.0285 0.37695,0.043 z"
         style="fill:#44484c;fill-opacity:0.77981651;stroke:#ffffff;stroke-width:1px;stroke-linecap:butt;stroke-linejoin:miter;stroke-opacity:0.78431374" />
      <path
         inkscape:connector-curvature="0"
         id="path3928"
         d="m 732.59404,442.76984 c -7.94587,-9.95208 -25.30274,-6.97069 -25.30274,-22.19922 v -9.9375 c 0,-1.6705 -1.98167,-3.0196 -3.6875,-2.5625 -15.7711,6.97049 -28.33438,26.27624 -44.4082,30.52735 h 61.97852 c 3.99598,0 7.95932,1.64898 11.41992,4.17187 z"
         style="fill:none;fill-opacity:1;stroke:#ffffff;stroke-width:1.5;stroke-linecap:butt;stroke-linejoin:miter;stroke-miterlimit:4;stroke-dasharray:none;stroke-opacity:0.78431374" />
      <path
         inkscape:connector-curvature="0"
         id="path3924"
         d="m 702.6663,432.88312 c 0,-0.9211 -0.80551,-1.33675 -1.53125,-1.53125 -5.2363,-1.403 -10.87282,-1.3319 -15.84375,0 -0.78371,0.21 -1.375,0.73605 -1.375,1.65625 v 5.58985 h 18.75 z"
         style="fill:#44484c;fill-opacity:0.78440366;stroke:#ffffff;stroke-width:1px;stroke-linecap:butt;stroke-linejoin:miter;stroke-opacity:0.78431374" />
      <path
         sodipodi:nodetypes="cc"
         inkscape:connector-curvature="0"
         id="path3932"
         d="m 715.04123,408.13358 c 0,18.7295 5.875,22.1406 5.875,27.125"
         style="fill:none;stroke:#ffffff;stroke-width:1px;stroke-linecap:butt;stroke-linejoin:miter;stroke-opacity:0.78431374" />
      <path
         inkscape:connector-curvature="0"
         id="path3926"
         d="m 748.39678,466.13192 c 0,-1.217 -1.08784,-1.99024 -1.98828,-1.99024 h -2.96094 v 18.2793 c 0,0.95524 -0.11944,1.87118 -0.32227,2.75195 1.01244,-0.01 3.41602,0.006 3.41602,0.006 1.12766,0 1.85547,-0.83496 1.85547,-1.85547 z"
         style="fill:#44484c;fill-opacity:0.78440366;stroke:#ffffff;stroke-width:1px;stroke-linecap:butt;stroke-linejoin:miter;stroke-opacity:0.78431374" />
      <path
         inkscape:connector-curvature="0"
         id="path3942"
         d="M 713.39482,496.35968 H 691.5413 v 4.53125 c 0,0.7401 0.73866,1.34766 1.34766,1.34766 h 19.40234 c 0.48382,0 1.10352,-0.58397 1.10352,-1.10547 z"
         style="fill:#44484c;fill-opacity:0.78440366;stroke:#ffffff;stroke-width:1px;stroke-linecap:butt;stroke-linejoin:miter;stroke-opacity:0.78431374" />
      <path
         inkscape:connector-curvature="0"
         id="path3948"
         d="m 684.29326,496.35968 h -29.8086 v 0.5879 4.33203 c 0,1.8081 1.10386,2.51953 2.51953,2.51953 7.62691,0.6725 16.89354,0.6331 24.70508,0 1.31268,0 2.59865,-1.24854 2.58399,-2.58594 z"
         style="fill:#44484c;fill-opacity:0.78440366;stroke:#ffffff;stroke-width:1px;stroke-linecap:butt;stroke-linejoin:miter;stroke-opacity:0.78431374" />
      <path
         inkscape:connector-curvature="0"
         id="path3950"
         d="M 653.00419,496.35968 H 623.1956 v 0.5879 4.33203 c 0,1.8081 1.10386,2.51953 2.51953,2.51953 7.62691,0.6725 16.89159,0.6331 24.70313,0 1.31268,0 2.60059,-1.24854 2.58593,-2.58594 z"
         style="fill:#44484c;fill-opacity:0.78440366;stroke:#ffffff;stroke-width:1px;stroke-linecap:butt;stroke-linejoin:miter;stroke-opacity:0.78431374" />
      <path
         inkscape:connector-curvature="0"
         id="path3952"
         d="m 621.71513,496.35968 h -29.80859 v 0.5879 4.33203 c 0,1.8081 1.10191,2.51953 2.51758,2.51953 7.62691,0.6725 16.89353,0.6331 24.70507,0 1.31268,0 2.6006,-1.24854 2.58594,-2.58594 z"
         style="fill:#44484c;fill-opacity:0.78440366;stroke:#ffffff;stroke-width:1px;stroke-linecap:butt;stroke-linejoin:miter;stroke-opacity:0.78431374" />
      <path
         inkscape:connector-curvature="0"
         id="path3986"
         d="m 553.28154,513.31281 c -0.0655,-2.22444 -0.83987,-4.00391 -2.29883,-4.00391 H 532.5081 c -1.93715,0 -2.87109,-2.20798 -2.87109,-3.80078 5.31001,-1.20438 10.61788,-6.32667 11.49218,-9.14844 h -37.47851 v 0.0879 c 2.37746,4.75979 6.58827,7.32033 11.30469,9.27343 0.15424,1.8659 -1.07537,3.70313 -3.70313,3.70313 h -18.12109 c -3.69774,0 -2.49323,12.53906 3.35937,12.53906 h 6.7168 c 12.92938,5.5549 24.76082,5.4438 38.00781,0 h 6.37695 c 3.93899,0 5.79857,-4.94299 5.68946,-8.65039 z"
         style="fill:#44484c;fill-opacity:0.78440366;stroke:#ffffff;stroke-width:1px;stroke-linecap:butt;stroke-linejoin:miter;stroke-opacity:0.78431374" />
      <path
         inkscape:connector-curvature="0"
         id="path3998"
         d="m 460.4163,496.35968 h -32.9375 v 4.71094 c 0,1.9393 32.9375,1.668 32.9375,0 z"
         style="fill:#999595;fill-opacity:0.78440366;stroke:#ffffff;stroke-width:1px;stroke-linecap:butt;stroke-linejoin:miter;stroke-opacity:0.78431374" />
      <path
         sodipodi:nodetypes="ccccccccc"
         inkscape:connector-curvature="0"
         id="path3918"
         d="m 743.4477,460.82798 v 21.5934 c 0,8.2807 -8.13078,13.9387 -15.55635,13.9387 H 340.92717 c -8.71441,0 -15.29115,-6.969 -15.29115,-15.2912 v -19.5338 c 0,-12.2407 12.54989,-22.9368 22.93674,-22.9368 h 372.60108 c 11.226,0 22.27386,12.8722 22.27386,22.2297 z"
         style="fill:none;fill-opacity:1;stroke:#ffffff;stroke-width:1px;stroke-linecap:butt;stroke-linejoin:miter;stroke-opacity:0.78431374" />
      <rect
         ry="4.2663264"
         rx="4.2663264"
         y="-721.01843"
         x="448.43454"
         height="353.35223"
         width="38.6479"
         id="rect3922"
         style="fill:#44484c;fill-opacity:0.78440366;stroke:#ffffff;stroke-width:1;stroke-miterlimit:4;stroke-dasharray:none;stroke-opacity:0.78431374"
         transform="rotate(90)" />
      <rect
         ry="4.2663264"
         rx="4.2663264"
         y="-432.79123"
         x="452.63351"
         height="61.125"
         width="30"
         id="rect3940"
         style="fill:#2e2f31;fill-opacity:0.64705882;stroke:#ffffff;stroke-width:1;stroke-linecap:round;stroke-linejoin:round;stroke-miterlimit:4;stroke-dasharray:none;stroke-opacity:0.78431374"
         transform="rotate(90)" />
      <path
         inkscape:transform-center-y="2.6022818"
         d="m 778.32037,821.21736 -9.01451,-15.61361 18.02903,0 z"
         inkscape:randomized="0"
         inkscape:rounded="0"
         inkscape:flatsided="true"
         sodipodi:arg2="2.6179939"
         sodipodi:arg1="1.5707963"
         sodipodi:r2="5.2045345"
         sodipodi:r1="10.409069"
         sodipodi:cy="810.80829"
         sodipodi:cx="778.32037"
         sodipodi:sides="3"
         id="path3934"
         style="fill:#44484c;fill-opacity:0.64705882;stroke:#ffffff;stroke-width:1.101403;stroke-linecap:round;stroke-linejoin:round;stroke-miterlimit:4;stroke-dasharray:none;stroke-opacity:0.78431374"
         sodipodi:type="star"
         transform="rotate(90,753.62228,442.873)" />
      <path
         sodipodi:type="star"
         style="fill:#44484c;fill-opacity:0.64705882;stroke:#ffffff;stroke-width:1.101403;stroke-linecap:round;stroke-linejoin:round;stroke-miterlimit:4;stroke-dasharray:none;stroke-opacity:0.78431374"
         id="path3936"
         sodipodi:sides="3"
         sodipodi:cx="778.32037"
         sodipodi:cy="792.12079"
         sodipodi:r1="10.409069"
         sodipodi:r2="5.2045345"
         sodipodi:arg1="1.5707963"
         sodipodi:arg2="2.6179939"
         inkscape:flatsided="true"
         inkscape:rounded="0"
         inkscape:randomized="0"
         d="m 778.32037,802.52986 -9.01451,-15.61361 18.02903,0 z"
         inkscape:transform-center-y="2.6022818"
         transform="rotate(90,753.62228,442.873)" />
      <path
         inkscape:transform-center-y="2.6022818"
         d="m 778.32037,783.84236 -9.01451,-15.61361 18.02903,0 z"
         inkscape:randomized="0"
         inkscape:rounded="0"
         inkscape:flatsided="true"
         sodipodi:arg2="2.6179939"
         sodipodi:arg1="1.5707963"
         sodipodi:r2="5.2045345"
         sodipodi:r1="10.409069"
         sodipodi:cy="773.43329"
         sodipodi:cx="778.32037"
         sodipodi:sides="3"
         id="path3938"
         style="fill:#44484c;fill-opacity:0.64705882;stroke:#ffffff;stroke-width:1.101403;stroke-linecap:round;stroke-linejoin:round;stroke-miterlimit:4;stroke-dasharray:none;stroke-opacity:0.78431374"
         sodipodi:type="star"
         transform="rotate(90,753.62228,442.873)" />
      <path
         inkscape:connector-curvature="0"
         id="path3944"
         d="m 705.54123,496.41478 v 5.5"
         style="fill:none;stroke:#ffffff;stroke-width:1px;stroke-linecap:butt;stroke-linejoin:miter;stroke-opacity:0.78431374" />
      <path
         inkscape:connector-curvature="0"
         id="path3946"
         d="m 699.50998,496.38358 v 5.6562"
         style="fill:none;stroke:#ffffff;stroke-width:1px;stroke-linecap:butt;stroke-linejoin:miter;stroke-opacity:0.78431374" />
      <rect
         ry="2.0163264"
         rx="2.0163264"
         y="-587.91626"
         x="463.88351"
         height="7.375"
         width="7.375"
         id="rect3954"
         style="fill:#aaeeff;stroke:#ffffff;stroke-width:1;stroke-linecap:round;stroke-linejoin:round;stroke-miterlimit:4;stroke-dasharray:none;stroke-opacity:0.78431374"
         transform="rotate(90)" />
      <rect
         style="fill:#aaeeff;stroke:#ffffff;stroke-width:1;stroke-linecap:round;stroke-linejoin:round;stroke-miterlimit:4;stroke-dasharray:none;stroke-opacity:0.78431374"
         id="rect3956"
         width="7.375"
         height="7.375"
         x="463.88351"
         y="-571.54126"
         rx="2.0163264"
         ry="2.0163264"
         transform="rotate(90)" />
      <rect
         style="fill:#aaeeff;stroke:#ffffff;stroke-width:1;stroke-linecap:round;stroke-linejoin:round;stroke-miterlimit:4;stroke-dasharray:none;stroke-opacity:0.78431374"
         id="rect3958"
         width="7.375"
         height="7.375"
         x="463.88351"
         y="-554.79126"
         rx="2.0163264"
         ry="2.0163264"
         transform="rotate(90)" />
      <rect
         ry="2.0163264"
         rx="2.0163264"
         y="-538.41626"
         x="463.88351"
         height="7.375"
         width="7.375"
         id="rect3960"
         style="fill:#aaeeff;stroke:#ffffff;stroke-width:1;stroke-linecap:round;stroke-linejoin:round;stroke-miterlimit:4;stroke-dasharray:none;stroke-opacity:0.78431374"
         transform="rotate(90)" />
      <circle
         r="5.9504724"
         cy="-510.05173"
         cx="467.48148"
         id="path3962"
         style="fill:#2e2f31;fill-opacity:0.78440366;stroke:#ffffff;stroke-width:1;stroke-linecap:round;stroke-linejoin:round;stroke-miterlimit:4;stroke-dasharray:none;stroke-opacity:0.78431374"
         transform="rotate(90)" />
      <rect
         ry="5.2663264"
         rx="5.3913264"
         y="-480.66623"
         x="460.13351"
         height="35.125"
         width="15.125"
         id="rect3964"
         style="fill:#999595;fill-opacity:1;stroke:#ffffff;stroke-width:1;stroke-linecap:round;stroke-linejoin:round;stroke-miterlimit:4;stroke-dasharray:none;stroke-opacity:0.78431374"
         transform="rotate(90)" />
      <rect
         style="fill:#999595;fill-opacity:1;stroke:#ffffff;stroke-width:1;stroke-linecap:round;stroke-linejoin:round;stroke-miterlimit:4;stroke-dasharray:none;stroke-opacity:0.78431374"
         id="rect3966"
         width="15.125"
         height="35.125"
         x="460.13351"
         y="-649.50122"
         rx="5.3913264"
         ry="5.2663264"
         transform="rotate(90)" />
      <path
         inkscape:connector-curvature="0"
         id="path3978"
         d="m 458.79244,472.17088 c -1.00928,-0.061 -1.76938,-0.3607 -2.30385,-0.9073 -0.39793,-0.407 -0.67797,-0.9644 -0.81244,-1.6171 -0.0307,-0.1492 -0.0749,-0.4198 -0.069,-0.4238 0.002,0 0.3608,-0.036 0.79841,-0.078 0.43759,-0.042 0.8182,-0.079 0.8458,-0.083 0.0441,-0.01 0.0501,0 0.0501,0.02 0,0.047 0.052,0.2557 0.10186,0.4095 0.23758,0.7318 0.7185,1.123 1.48892,1.2111 0.17704,0.02 0.63125,0.01 0.79612,-0.02 0.4354,-0.076 0.75711,-0.2464 0.97285,-0.516 0.1685,-0.2106 0.22953,-0.3826 0.23019,-0.6487 0,-0.1897 -0.0239,-0.2954 -0.0965,-0.4212 -0.0501,-0.087 -0.16875,-0.2064 -0.27302,-0.2757 -0.2489,-0.1654 -0.49626,-0.2465 -1.64916,-0.5404 -0.72026,-0.1835 -1.06363,-0.2934 -1.43731,-0.4599 -0.50607,-0.2255 -0.87316,-0.5238 -1.14732,-0.9323 -0.15108,-0.2251 -0.27096,-0.5151 -0.32681,-0.7907 -0.0267,-0.131 -0.0303,-0.1894 -0.03,-0.4577 3.1e-4,-0.2661 0.004,-0.3252 0.0297,-0.4381 0.14758,-0.6605 0.56013,-1.2147 1.14595,-1.5394 0.26326,-0.1459 0.60406,-0.2675 0.94165,-0.3361 0.74104,-0.1504 1.72267,-0.1202 2.41533,0.074 0.31958,0.09 0.65262,0.2436 0.88929,0.4108 0.16274,0.115 0.44837,0.4008 0.5646,0.5649 0.18598,0.2627 0.33525,0.6078 0.40347,0.9328 0.0345,0.1643 0.0615,0.3741 0.0615,0.4773 v 0.061 l -0.0769,10e-5 c -0.0422,1e-4 -0.41085,0.015 -0.81904,0.033 -0.40819,0.018 -0.76335,0.033 -0.78929,0.033 h -0.0471 l -0.0239,-0.1169 c -0.0534,-0.2623 -0.16991,-0.5245 -0.30358,-0.6837 -0.26029,-0.31 -0.64489,-0.4431 -1.28061,-0.4429 -0.41867,10e-5 -0.70594,0.056 -0.9855,0.1933 -0.32436,0.1587 -0.45673,0.3303 -0.47141,0.6107 -0.0111,0.2087 0.0389,0.3532 0.17208,0.4989 0.21305,0.2331 0.60415,0.3873 1.64992,0.6506 0.81415,0.2049 1.12372,0.2972 1.52442,0.4545 0.71182,0.2795 1.16765,0.6655 1.44367,1.2225 0.16508,0.3332 0.23767,0.6401 0.25618,1.0831 0.0221,0.526 -0.10374,1.0091 -0.3826,1.4708 -0.31175,0.5162 -0.79454,0.8854 -1.43301,1.0961 -0.55663,0.1837 -1.29739,0.2643 -2.02377,0.2201 v 0 z"
         style="fill:#000000;stroke:#ffffff;stroke-width:0.01337218;stroke-linecap:round;stroke-linejoin:round;stroke-miterlimit:4;stroke-dasharray:none;stroke-opacity:0.78431374" />
      <path
         inkscape:connector-curvature="0"
         id="path3980"
         d="m 631.90457,467.58258 v -4.3259 l 1.88881,3e-4 c 1.03888,2e-4 2.04778,0.01 2.24207,0.013 1.26959,0.046 1.82352,0.2194 2.30326,0.7192 0.53357,0.5559 0.75495,1.4102 0.58534,2.2587 -0.0945,0.4728 -0.33167,0.8888 -0.68774,1.2063 -0.32711,0.2917 -0.85297,0.5198 -1.40964,0.6115 -0.12352,0.02 -0.13641,0.025 -0.11369,0.041 0.0142,0.01 0.1159,0.077 0.22622,0.1505 0.46323,0.3061 0.72727,0.5672 1.1006,1.0881 0.21664,0.3023 0.31361,0.4528 1.02703,1.5926 l 0.60321,0.9638 h -1.03055 c -0.81358,0 -1.03382,-10e-5 -1.04597,-0.013 -0.009,-0.01 -0.35233,-0.5192 -0.76404,-1.1333 -1.18931,-1.774 -1.33763,-1.9748 -1.61352,-2.1851 -0.27363,-0.2087 -0.49348,-0.2604 -1.15513,-0.2717 l -0.41786,-0.01 v 1.8069 1.807 h -0.86922 -0.86918 v -4.3259 z m 3.91806,-0.6756 c 0.2839,-0.016 0.53483,-0.044 0.64333,-0.072 0.32757,-0.086 0.584,-0.3405 0.68081,-0.6766 0.0361,-0.1254 0.0512,-0.4434 0.0275,-0.5825 -0.0571,-0.3375 -0.22675,-0.5724 -0.51607,-0.7146 -0.27747,-0.1363 -0.40498,-0.1458 -1.96237,-0.1464 l -1.05306,-3e-4 v 1.1032 1.1033 l 0.96616,-1e-4 c 0.53135,0 1.07744,-0.01 1.21352,-0.014 z"
         style="fill:#000000;stroke:#ffffff;stroke-width:0.01337218;stroke-linecap:round;stroke-linejoin:round;stroke-miterlimit:4;stroke-dasharray:none;stroke-opacity:0.78431374" />
      <path
         inkscape:connector-curvature="0"
         id="path3982"
         d="m 627.28841,472.06578 c -1.32244,-0.1042 -2.17217,-0.568 -2.70868,-1.4781 -0.21518,-0.3652 -0.40547,-0.9549 -0.45693,-1.4162 l -0.009,-0.083 0.0455,-0.01 c 0.0835,-0.014 1.64885,-0.162 1.65467,-0.1562 0.003,0 0.0186,0.066 0.0347,0.1406 0.0159,0.074 0.0533,0.2078 0.0829,0.2971 0.22981,0.6916 0.66281,1.0737 1.35833,1.1986 0.21267,0.038 0.67844,0.042 0.90299,0.01 0.29972,-0.047 0.52747,-0.1243 0.70648,-0.2401 0.24567,-0.1589 0.43009,-0.3816 0.51395,-0.6204 0.0474,-0.1351 0.0611,-0.4061 0.0272,-0.5405 -0.0665,-0.2638 -0.22565,-0.4363 -0.54798,-0.5939 -0.22605,-0.1105 -0.48386,-0.1877 -1.4513,-0.4344 -0.88109,-0.2247 -1.2379,-0.3458 -1.67243,-0.5673 -0.41485,-0.2115 -0.74082,-0.5003 -0.98137,-0.8693 -0.25583,-0.3925 -0.37488,-0.8381 -0.3551,-1.329 0.0171,-0.423 0.14637,-0.8152 0.38647,-1.172 0.17665,-0.2624 0.36236,-0.4472 0.63024,-0.6269 0.54599,-0.3662 1.2682,-0.5479 2.17695,-0.5477 1.01301,2e-4 1.78104,0.204 2.34793,0.6231 0.1466,0.1083 0.37696,0.3387 0.48533,0.4853 0.29271,0.3959 0.45488,0.841 0.50039,1.3733 0.007,0.082 0.011,0.1502 0.009,0.1523 -0.006,0.01 -1.745,0.082 -1.75038,0.077 -0.003,0 -0.0163,-0.058 -0.0306,-0.1236 -0.0809,-0.3711 -0.24349,-0.6696 -0.45571,-0.8366 -0.16419,-0.1292 -0.37726,-0.2165 -0.64821,-0.2656 -0.21655,-0.039 -0.70519,-0.043 -0.93408,-0.01 -0.35851,0.056 -0.65118,0.1799 -0.84142,0.356 -0.20162,0.1867 -0.2599,0.5078 -0.13901,0.7662 0.055,0.1174 0.18801,0.256 0.3253,0.3388 0.2542,0.1533 0.6931,0.2998 1.49051,0.4975 0.96252,0.2386 1.50964,0.4197 1.92051,0.6357 0.66492,0.3495 1.11074,0.9294 1.25112,1.6275 0.0509,0.253 0.0655,0.4408 0.057,0.7297 -0.006,0.203 -0.015,0.2933 -0.0419,0.4208 -0.14865,0.704 -0.56414,1.3107 -1.14484,1.6717 -0.40878,0.2541 -0.92976,0.4166 -1.58195,0.4935 -0.17439,0.021 -0.98685,0.038 -1.15643,0.024 v 0 z"
         style="fill:#000000;stroke:#ffffff;stroke-width:0.01352551;stroke-linecap:round;stroke-linejoin:round;stroke-miterlimit:4;stroke-dasharray:none;stroke-opacity:0.78431374" />
      <path
         inkscape:connector-curvature="0"
         id="path3984"
         d="m 464.92816,467.70028 v -4.3416 h 0.87915 0.87915 v 3.6113 3.6113 h 2.19791 2.19788 v 0.7304 0.7303 h -3.07703 -3.07706 z"
         style="fill:#000000;stroke:#ffffff;stroke-width:0.01352551;stroke-linecap:round;stroke-linejoin:round;stroke-miterlimit:4;stroke-dasharray:none;stroke-opacity:0.78431374" />
      <path
         inkscape:connector-curvature="0"
         id="path3988"
         d="m 532.29124,509.25858 h -19.375"
         style="fill:none;stroke:#ffffff;stroke-width:1px;stroke-linecap:butt;stroke-linejoin:miter;stroke-opacity:0.78431374" />
      <path
         sodipodi:nodetypes="cc"
         inkscape:connector-curvature="0"
         id="path3990"
         d="M 529.7881,505.42778 H 514.40422"
         style="fill:none;stroke:#ffffff;stroke-width:1px;stroke-linecap:butt;stroke-linejoin:miter;stroke-opacity:0.78431374" />
      <path
         inkscape:connector-curvature="0"
         id="path3992"
         d="m 832.72656,655.39154 v 38"
         style="fill:none;stroke:#ffffff;stroke-width:1px;stroke-linecap:butt;stroke-linejoin:miter;stroke-opacity:0.78431374;filter:url(#filter3994)"
         transform="rotate(90,753.62228,442.873)" />
      <path
         style="fill:none;fill-opacity:1;stroke:#ffffff;stroke-width:1.5;stroke-linecap:butt;stroke-linejoin:miter;stroke-miterlimit:4;stroke-dasharray:none;stroke-opacity:0.78431374"
         d="m 743.4477,460.82798 v 21.5934 c 0,8.2807 -8.13078,13.9387 -15.55635,13.9387 H 340.92717 c -8.71441,0 -15.29115,-6.969 -15.29115,-15.2912 v -19.5338 c 0,-12.2407 12.54989,-22.9368 22.93674,-22.9368 h 372.60108 c 11.226,0 22.27386,12.8722 22.27386,22.2297 z"
         id="path242"
         inkscape:connector-curvature="0"
         sodipodi:nodetypes="ccccccccc" />
    </g>
  </g>
</svg>
