<?xml version="1.0" encoding="UTF-8" standalone="no"?>
<!-- Created with Inkscape (http://www.inkscape.org/) -->

<svg
   xmlns:dc="http://purl.org/dc/elements/1.1/"
   xmlns:cc="http://creativecommons.org/ns#"
   xmlns:rdf="http://www.w3.org/1999/02/22-rdf-syntax-ns#"
   xmlns:svg="http://www.w3.org/2000/svg"
   xmlns="http://www.w3.org/2000/svg"
   xmlns:sodipodi="http://sodipodi.sourceforge.net/DTD/sodipodi-0.dtd"
   xmlns:inkscape="http://www.inkscape.org/namespaces/inkscape"
   width="425.19434"
   height="311.88824"
   id="svg2"
   version="1.1"
   inkscape:version="0.92.5 (2060ec1f9f, 2020-04-08)"
   sodipodi:docname="yuzu_single_joycon_left.svg">
  <defs
     id="defs4">
    <filter
       inkscape:collect="always"
       id="filter3994"
       style="color-interpolation-filters:sRGB">
      <feGaussianBlur
         inkscape:collect="always"
         stdDeviation="0.95"
         id="feGaussianBlur3996" />
    </filter>
  </defs>
  <sodipodi:namedview
     id="base"
     pagecolor="#19232d"
     bordercolor="#666666"
     borderopacity="1.0"
     inkscape:pageopacity="0"
     inkscape:pageshadow="2"
     inkscape:zoom="1.4142136"
     inkscape:cx="749.73064"
     inkscape:cy="-143.91537"
     inkscape:document-units="px"
     inkscape:current-layer="layer1"
     showgrid="false"
     inkscape:window-width="2610"
     inkscape:window-height="1256"
     inkscape:window-x="2677"
     inkscape:window-y="81"
     inkscape:window-maximized="0"
     inkscape:pagecheckerboard="true"
     inkscape:snap-to-guides="true"
     fit-margin-top="0"
     fit-margin-left="0"
     fit-margin-right="0"
     fit-margin-bottom="0" />
  <metadata
     id="metadata7">
    <rdf:RDF>
      <cc:Work
         rdf:about="">
        <dc:format>image/svg+xml</dc:format>
        <dc:type
           rdf:resource="http://purl.org/dc/dcmitype/StillImage" />
        <dc:title />
      </cc:Work>
    </rdf:RDF>
  </metadata>
  <g
     inkscape:label="Livello 1"
     inkscape:groupmode="layer"
     id="layer1"
     transform="translate(-295.90999,-362.86666)">
    <path
       inkscape:connector-curvature="0"
       style="fill:#999595;fill-opacity:0.78431374;stroke:#000000;stroke-width:1px;stroke-linecap:butt;stroke-linejoin:miter;stroke-opacity:1"
       d="m 396.33772,528.09899 c 0.10254,0.0199 0.20437,0.041 0.3086,0.041 l 34.03125,0.125 c 0.0614,0 0.1166,-0.016 0.17578,-0.0215 v -3.20508 c 0,-1.43551 -1.00177,-2.16406 -2.16602,-2.16406 h -30.53711 c -1.10492,0 -1.8125,0.80751 -1.8125,2.07617 z"
       id="path3828" />
    <path
       inkscape:connector-curvature="0"
       style="fill:#999595;fill-opacity:0.78431374;stroke:#000000;stroke-width:1px;stroke-linecap:butt;stroke-linejoin:miter;stroke-opacity:1"
       d="m 565.58772,528.265 h 34.39649 c 0.042,0 0.0783,-0.0131 0.11914,-0.0156 v -3.29883 c 0,-1.26866 -0.70758,-2.07617 -1.8125,-2.07617 h -30.53711 c -1.16425,0 -2.16602,0.72855 -2.16602,2.16406 z"
       id="path3830" />
    <path
       style="fill:#44484c;fill-opacity:0.78440366;stroke:#000000;stroke-width:1px;stroke-linecap:butt;stroke-linejoin:miter;stroke-opacity:1"
       d="m 324.65414,537.24232 h 335.5996 v -5.36719 h 13.9375 c 1.5574,0 4.18555,-1.30801 4.18555,-2.41602 v -4.88086 c 0,-0.89533 -0.69272,-1.70312 -1.70312,-1.70312 h -65.24219 c -8.61907,0 -8.72583,5.39062 -11.44727,5.39062 H 565.3807 c -2.45548,0 -3.05953,-5.25976 -10.07617,-5.25976 H 440.75374 c -6.95525,0 -7.42293,5.25976 -10.07617,5.25976 l -34.03125,-0.125 c -2.34388,0 -4.14843,-5.25976 -10.38476,-5.25976 l -59.80664,0.004 c -0.98171,-0.009 -1.80078,0.47365 -1.80078,1.53515 z"
       id="path3826"
       inkscape:connector-curvature="0" />
    <path
       style="fill:#44484c;fill-opacity:0.78440366;stroke:#000000;stroke-width:1px;stroke-linecap:butt;stroke-linejoin:miter;stroke-opacity:1"
       d="m 296.40999,589.19154 c 0,40.49355 32.66156,76.73952 55.84375,82.95117 1.05756,0.28337 3.18164,0.3844 3.18164,-1.45899 v -2.97461 c -36.64893,-15.35908 -53.89257,-56.26788 -53.89257,-78.67382 v -28.75 h -2.47657 c -1.25689,0 -2.65625,1.28376 -2.65625,2.65625 z"
       id="path3832"
       inkscape:connector-curvature="0" />
    <path
       sodipodi:nodetypes="ccccccccc"
       inkscape:connector-curvature="0"
       id="path3925"
       d="m 304.79265,537.24265 413.31249,-0.004 c 1.0235,0 1.78518,0.51372 1.78518,1.80469 l 0.004,49.63672 c 0,51.67951 -46.31487,85.07486 -85.69206,85.07486 H 386.2614 c -57.88508,0 -84.71894,-56.76439 -84.71894,-84.71895 V 540.2454 c 0,-2.4861 1.36797,-3.00284 3.25019,-3.00284 z"
       style="fill:none;fill-opacity:1;stroke:#000000;stroke-width:2;stroke-linecap:butt;stroke-linejoin:miter;stroke-miterlimit:4;stroke-dasharray:none;stroke-opacity:1" />
    <circle
       id="path3871"
       style="fill:#44484c;fill-opacity:0.88235294;stroke:#000000;stroke-width:0.99999994;stroke-linecap:round;stroke-linejoin:round;stroke-miterlimit:4;stroke-dasharray:none;stroke-opacity:1"
       cx="-601.55035"
       cy="496.45163"
       r="15.150405"
       transform="rotate(-90)" />
    <circle
       style="fill:#44484c;fill-opacity:0.88235294;stroke:#000000;stroke-width:0.99999994;stroke-linecap:round;stroke-linejoin:round;stroke-miterlimit:4;stroke-dasharray:none;stroke-opacity:1"
       id="path3873"
       cx="-601.55035"
       cy="559.08105"
       r="15.150405"
       transform="rotate(-90)" />
    <circle
       style="fill:#44484c;fill-opacity:0.88235294;stroke:#000000;stroke-width:0.99999994;stroke-linecap:round;stroke-linejoin:round;stroke-miterlimit:4;stroke-dasharray:none;stroke-opacity:1"
       id="path3875"
       cx="527.76636"
       cy="632.86505"
       r="15.150405" />
    <circle
       id="path3877"
       style="fill:#44484c;fill-opacity:0.88235294;stroke:#000000;stroke-width:0.99999994;stroke-linecap:round;stroke-linejoin:round;stroke-miterlimit:4;stroke-dasharray:none;stroke-opacity:1"
       cx="527.76636"
       cy="570.2356"
       r="15.150405" />
    <rect
       style="fill:#44484c;fill-opacity:0.88235294;stroke:#000000;stroke-width:1;stroke-linecap:round;stroke-linejoin:round;stroke-miterlimit:4;stroke-dasharray:none;stroke-opacity:1"
       id="rect3890"
       width="22.1875"
       height="6.375"
       x="-570.49121"
       y="339.87885"
       transform="rotate(-90)" />
    <circle
       id="path3907"
       style="fill:#44484c;fill-opacity:0.78440366;stroke:#000000;stroke-width:1;stroke-linecap:round;stroke-linejoin:round;stroke-miterlimit:4;stroke-dasharray:none;stroke-opacity:1"
       cx="-601.42871"
       cy="409.87881"
       r="32.0625"
       transform="rotate(-90)" />
    <circle
       style="fill:#44484c;fill-opacity:0.77981651;stroke:#000000;stroke-width:0.99999994;stroke-linecap:round;stroke-linejoin:round;stroke-miterlimit:4;stroke-dasharray:none;stroke-opacity:1"
       id="path3909"
       cx="-601.42871"
       cy="410.10123"
       r="22.484156"
       transform="rotate(-90)" />
    <path
       inkscape:connector-curvature="0"
       id="path3911"
       d="m 383.76507,602.5905 c -2.14499,-2e-4 -3.41233,-0.006 -3.48046,-0.0158 -0.20675,-0.0299 -0.40432,-0.13156 -0.56195,-0.28919 -0.4752,-0.4752 -0.33419,-1.28334 0.27505,-1.57638 0.22838,-0.10984 -0.0485,-0.10221 3.71783,-0.10247 l 3.40192,-2.3e-4 -8.2e-4,0.70143 c -4.5e-4,0.38578 0.004,0.83227 0.0105,0.99219 l 0.0113,0.29075 -3.37331,-3e-4 z"
       style="fill:#000000;stroke:#000000;stroke-width:0.03125;stroke-linecap:round;stroke-linejoin:round;stroke-miterlimit:4;stroke-dasharray:none;stroke-opacity:1" />
    <path
       inkscape:connector-curvature="0"
       id="path3913"
       d="m 440.18587,601.71008 c -0.0436,0.38945 -0.33325,0.7247 -0.73195,0.8473 -0.0793,0.0244 -0.33014,0.0268 -3.23924,0.0311 l -3.1533,0.005 0.0127,-0.2308 c 0.007,-0.12694 0.0127,-0.57368 0.0127,-0.99275 v -0.76194 l 3.15625,0.004 3.15625,0.004 0.10157,0.0347 c 0.30532,0.10445 0.54509,0.34564 0.64749,0.65134 0.0334,0.0998 0.0509,0.28935 0.0376,0.40814 v 0 z"
       style="fill:#000000;fill-opacity:1;stroke:#000000;stroke-width:0.03125;stroke-linecap:round;stroke-linejoin:round;stroke-miterlimit:4;stroke-dasharray:none;stroke-opacity:1" />
    <path
       inkscape:connector-curvature="0"
       id="path3915"
       d="m 410.16913,578.44399 c -0.35469,0 -0.80142,0.006 -0.99274,0.0127 l -0.34784,0.0127 0.004,-3.23141 0.004,-3.23141 0.0419,-0.11461 c 0.15748,-0.43114 0.55501,-0.6991 0.99393,-0.66997 0.24326,0.0161 0.45768,0.11165 0.63065,0.28091 0.13572,0.13281 0.20774,0.25762 0.28161,0.48804 0.016,0.0498 0.021,0.71149 0.0246,3.25781 l 0.005,3.19532 h -0.6449 v 0 z"
       style="fill:#000000;fill-opacity:1;stroke:#000000;stroke-width:0.03125;stroke-linecap:round;stroke-linejoin:round;stroke-miterlimit:4;stroke-dasharray:none;stroke-opacity:1" />
    <path
       inkscape:connector-curvature="0"
       id="path3917"
       d="m 410.79696,631.11586 c -0.0284,0.21504 -0.1369,0.42503 -0.2988,0.57817 -0.56321,0.53275 -1.4625,0.26401 -1.64714,-0.49223 -0.0172,-0.0705 -0.0211,-0.68912 -0.0215,-3.44981 l -5.6e-4,-3.36387 0.33203,0.0123 c 0.18262,0.007 0.62911,0.0123 0.9922,0.0123 h 0.66016 l -0.002,3.30468 c -10e-4,1.81758 -0.008,3.34688 -0.0144,3.39844 z"
       style="fill:#000000;fill-opacity:1;stroke:#000000;stroke-width:0.03125;stroke-linecap:round;stroke-linejoin:round;stroke-miterlimit:4;stroke-dasharray:none;stroke-opacity:1" />
    <rect
       style="fill:#44484c;fill-opacity:0.77981651;stroke:#000000;stroke-width:1;stroke-linecap:round;stroke-linejoin:round;stroke-miterlimit:4;stroke-dasharray:none;stroke-opacity:1"
       id="rect3919"
       width="25.75"
       height="25.125"
       x="-591.36621"
       y="594.75378"
       ry="3.375"
       transform="rotate(-90)" />
    <circle
       style="fill:#000000;stroke:#000000;stroke-width:1;stroke-linecap:round;stroke-linejoin:round;stroke-miterlimit:4;stroke-dasharray:none;stroke-opacity:1"
       id="path3921"
       cx="-578.58496"
       cy="607.53503"
       r="8.84375"
       transform="rotate(-90)" />
    <path
       sodipodi:type="star"
       style="fill:#000000;stroke:#000000;stroke-width:1;stroke-linecap:round;stroke-linejoin:round;stroke-miterlimit:4;stroke-dasharray:none;stroke-opacity:1"
       id="path3014"
       sodipodi:sides="3"
       sodipodi:cx="455.15625"
       sodipodi:cy="678.55212"
       sodipodi:r1="7.3185139"
       sodipodi:r2="3.6592569"
       sodipodi:arg1="2.0943951"
       sodipodi:arg2="3.1415927"
       inkscape:flatsided="true"
       inkscape:rounded="0"
       inkscape:randomized="0"
       d="m 451.49699,684.89014 0,-12.67603 10.97777,6.33801 z"
       inkscape:transform-center-x="-1.8296276"
       inkscape:transform-center-y="-1.0018697e-05"
       transform="rotate(-90,437.50716,588.26208)" />
    <path
       inkscape:transform-center-y="-1.0018697e-05"
       inkscape:transform-center-x="1.8296245"
       transform="matrix(0,1,1,0,-150.75492,1025.7692)"
       d="m -397.09975,684.89014 0,-12.67603 10.97777,6.33801 z"
       inkscape:randomized="0"
       inkscape:rounded="0"
       inkscape:flatsided="true"
       sodipodi:arg2="3.1415927"
       sodipodi:arg1="2.0943951"
       sodipodi:r2="3.6592569"
       sodipodi:r1="7.3185139"
       sodipodi:cy="678.55212"
       sodipodi:cx="-393.44049"
       sodipodi:sides="3"
       id="path3788"
       style="fill:#000000;stroke:#000000;stroke-width:1;stroke-linecap:round;stroke-linejoin:round;stroke-miterlimit:4;stroke-dasharray:none;stroke-opacity:1"
       sodipodi:type="star" />
    <path
       transform="scale(-1)"
       d="m -500.77132,-595.23156 0,-12.67604 10.97777,6.33802 z"
       inkscape:randomized="0"
       inkscape:rounded="0"
       inkscape:flatsided="true"
       sodipodi:arg2="3.1415927"
       sodipodi:arg1="2.0943951"
       sodipodi:r2="3.6592569"
       sodipodi:r1="7.3185139"
       sodipodi:cy="-601.56958"
       sodipodi:cx="-497.11206"
       sodipodi:sides="3"
       id="path3790"
       style="fill:#000000;stroke:#000000;stroke-width:1;stroke-linecap:round;stroke-linejoin:round;stroke-miterlimit:4;stroke-dasharray:none;stroke-opacity:1"
       sodipodi:type="star"
       inkscape:transform-center-y="-1.8296239" />
    <path
       sodipodi:type="star"
       style="fill:#000000;stroke:#000000;stroke-width:1;stroke-linecap:round;stroke-linejoin:round;stroke-miterlimit:4;stroke-dasharray:none;stroke-opacity:1"
       id="path3792"
       sodipodi:sides="3"
       sodipodi:cx="558.82776"
       sodipodi:cy="-601.56958"
       sodipodi:r1="7.3185139"
       sodipodi:r2="3.6592569"
       sodipodi:arg1="2.0943951"
       sodipodi:arg2="3.1415927"
       inkscape:flatsided="true"
       inkscape:rounded="0"
       inkscape:randomized="0"
       d="m 555.1685,-595.23156 0,-12.67604 10.97777,6.33802 z"
       transform="scale(1,-1)"
       inkscape:transform-center-y="1.829623" />
    <path
       style="fill:#44484c;fill-opacity:0.78440366;stroke:#000000;stroke-width:1px;stroke-linecap:butt;stroke-linejoin:miter;stroke-opacity:1"
       d="m 481.4471,456.83807 c -0.0147,1.33738 1.27131,2.58593 2.58399,2.58593 7.81154,0.63309 17.07817,0.67258 24.70508,0 1.41567,0 2.51953,-0.71145 2.51953,-2.51953 v -4.33008 -0.32617 h -29.8086 z"
       id="path4046"
       inkscape:connector-curvature="0" />
    <path
       style="fill:#44484c;fill-opacity:0.78440366;stroke:#000000;stroke-width:1px;stroke-linecap:butt;stroke-linejoin:miter;stroke-opacity:1"
       d="m 512.73617,456.83807 c -0.0147,1.33738 1.27325,2.58593 2.58593,2.58593 7.81154,0.63309 17.07622,0.67258 24.70313,0 1.41567,0 2.51953,-0.71145 2.51953,-2.51953 v -4.33008 -0.32617 h -29.80859 z"
       id="path4048"
       inkscape:connector-curvature="0" />
    <path
       style="fill:#44484c;fill-opacity:0.78440366;stroke:#000000;stroke-width:1px;stroke-linecap:butt;stroke-linejoin:miter;stroke-opacity:1"
       d="m 308.15999,403.2951 c 1.47177,-1.72549 3.16264,-3.30579 4.99219,-4.64258 7.94824,-9.9443 25.29688,-6.96816 25.29688,-22.19336 v -8.65234 c -2.05962,-1.05864 -4.0122,-3.94727 -6.45703,-3.94727 h -9.01563 c -2.06263,0 -4.77344,1.81802 -4.77344,4.50781 -1.0441,11.14204 -8.282,24.91724 -10.04297,34.92774 z m 13.29493,-8.48047 c 0.10537,-0.0214 0.21081,-0.0392 0.3164,-0.0586 -0.10554,0.0195 -0.21107,0.037 -0.3164,0.0586 z m 1.375,-0.2168 c 0.12564,-0.0145 0.25112,-0.0315 0.37695,-0.043 -0.12584,0.0115 -0.2513,0.0284 -0.37695,0.043 z"
       id="path4000"
       inkscape:connector-curvature="0" />
    <path
       style="fill:none;fill-opacity:1;stroke:#000000;stroke-width:2;stroke-linecap:butt;stroke-linejoin:miter;stroke-miterlimit:4;stroke-dasharray:none;stroke-opacity:1"
       d="m 313.14632,398.65838 c 3.4606,-2.52289 7.42394,-4.17188 11.41992,-4.17188 h 61.97852 c -16.07382,-4.2511 -28.6371,-23.5568 -44.4082,-30.52734 -1.70583,-0.45707 -3.6875,0.89201 -3.6875,2.5625 v 9.9375 c 0,15.22852 -17.35687,12.2471 -25.30274,22.19922 z"
       id="path4002"
       inkscape:connector-curvature="0" />
    <path
       style="fill:#44484c;fill-opacity:0.78440366;stroke:#000000;stroke-width:1px;stroke-linecap:butt;stroke-linejoin:miter;stroke-opacity:1"
       d="m 343.07406,394.4865 h 18.75 v -5.58984 c 0,-0.92023 -0.59129,-1.44625 -1.375,-1.65625 -4.97093,-1.33195 -10.60745,-1.40306 -15.84375,0 -0.72574,0.19446 -1.53125,0.61016 -1.53125,1.53125 z"
       id="path4004"
       inkscape:connector-curvature="0" />
    <path
       sodipodi:nodetypes="cc"
       inkscape:connector-curvature="0"
       id="path4006"
       d="m 330.69913,364.02235 c 0,18.72947 -5.875,22.1406 -5.875,27.125"
       style="fill:none;stroke:#000000;stroke-width:1px;stroke-linecap:butt;stroke-linejoin:miter;stroke-opacity:1" />
    <path
       style="fill:#44484c;fill-opacity:0.78440366;stroke:#000000;stroke-width:1px;stroke-linecap:butt;stroke-linejoin:miter;stroke-opacity:1"
       d="m 297.34359,439.21111 c 0,1.02049 0.72781,1.85743 1.85547,1.85743 0,0 2.40357,-0.0159 3.41601,-0.006 -0.20283,-0.88078 -0.32226,-1.79672 -0.32226,-2.75196 v -18.27929 h -2.96094 c -0.90045,0 -1.98828,0.77134 -1.98828,1.98828 z"
       id="path4008"
       inkscape:connector-curvature="0" />
    <path
       style="fill:#44484c;fill-opacity:0.78440366;stroke:#000000;stroke-width:1px;stroke-linecap:butt;stroke-linejoin:miter;stroke-opacity:1"
       d="m 378.79281,469.60955 c -0.10911,3.70741 1.75047,8.65039 5.68945,8.65039 h 6.375 c 13.24699,5.44382 25.07843,5.55489 38.00781,0 h 6.7168 c 5.8526,0 7.05711,-12.53906 3.35937,-12.53906 H 420.8221 c -2.62776,0 -3.85931,-1.83725 -3.70507,-3.70313 4.71642,-1.95312 8.92918,-4.51161 11.30664,-9.27148 v -0.49805 h -37.52149 l 0.004,0.30664 c 0.77928,2.7995 6.15945,8.0316 11.53125,9.25 0,1.59282 -0.9359,3.80079 -2.87305,3.80079 h -18.47265 c -1.45897,0 -2.23337,1.77945 -2.29883,4.0039 z"
       id="path4036"
       inkscape:connector-curvature="0" />
    <path
       style="fill:#44484c;fill-opacity:0.78440366;stroke:#000000;stroke-width:1;stroke-linecap:round;stroke-linejoin:round;stroke-miterlimit:4;stroke-dasharray:none;stroke-opacity:1"
       d="m 594.75374,457.68377 c 0,0.554 0.446,1 1,1 h 23.125 c 0.554,0 1,-0.446 1,-1 v -5.43555 h -25.125 z"
       id="rect4044"
       inkscape:connector-curvature="0" />
    <path
       style="fill:#44484c;fill-opacity:0.78440366;stroke:#000000;stroke-width:1px;stroke-linecap:butt;stroke-linejoin:miter;stroke-opacity:1"
       d="m 544.02523,456.83807 c -0.0147,1.33738 1.27326,2.58593 2.58594,2.58593 7.81154,0.63309 17.07816,0.67258 24.70507,0 1.41567,0 2.51758,-0.71145 2.51758,-2.51953 v -4.33008 -0.32617 h -29.80859 z"
       id="path4050"
       inkscape:connector-curvature="0" />
    <path
       style="fill:#44484c;fill-opacity:0.78440366;stroke:#000000;stroke-width:1;stroke-linecap:round;stroke-linejoin:round;stroke-miterlimit:4;stroke-dasharray:none;stroke-opacity:1"
       d="m 339.87874,456.98846 c 0,0.53864 0.43402,0.97265 0.97266,0.97265 h 4.42969 c 0.53864,0 0.97265,-0.43401 0.97265,-0.97265 v -4.74024 h -6.375 z"
       id="rect4052"
       inkscape:connector-curvature="0" />
    <path
       sodipodi:nodetypes="ccccccccc"
       inkscape:connector-curvature="0"
       id="path4010"
       d="m 302.29266,416.71672 v 21.59341 c 0,8.28074 8.13078,13.93871 15.55635,13.93871 h 386.96418 c 8.71441,0 15.29115,-6.969 15.29115,-15.29119 v -19.53382 c 0,-12.24072 -12.54989,-22.93678 -22.93674,-22.93678 H 324.56652 c -11.226,0 -22.27386,12.87218 -22.27386,22.22967 z"
       style="fill:none;fill-opacity:1;stroke:#000000;stroke-width:2;stroke-linecap:butt;stroke-linejoin:miter;stroke-miterlimit:4;stroke-dasharray:none;stroke-opacity:1" />
    <rect
       ry="4.2663264"
       rx="4.2663264"
       y="324.72192"
       x="404.32339"
       height="353.35223"
       width="38.6479"
       id="rect4012"
       style="fill:#44484c;fill-opacity:0.78440366;stroke:#000000;stroke-width:1;stroke-miterlimit:4;stroke-dasharray:none;stroke-opacity:1"
       transform="matrix(0,1,1,0,0,0)" />
    <rect
       ry="4.2663264"
       rx="4.2663264"
       y="612.9491"
       x="408.52231"
       height="61.125"
       width="30"
       id="rect4014"
       style="fill:#2e2f31;fill-opacity:0.64705882;stroke:#000000;stroke-width:1;stroke-linecap:round;stroke-linejoin:round;stroke-miterlimit:4;stroke-dasharray:none;stroke-opacity:1"
       transform="matrix(0,1,1,0,0,0)" />
    <path
       inkscape:transform-center-y="2.6022818"
       transform="matrix(0,1,1,0,-150.75492,698.49623)"
       d="m -275.0365,821.21736 -9.01452,-15.61361 18.02904,0 z"
       inkscape:randomized="0"
       inkscape:rounded="0"
       inkscape:flatsided="true"
       sodipodi:arg2="2.6179939"
       sodipodi:arg1="1.5707963"
       sodipodi:r2="5.2045345"
       sodipodi:r1="10.409069"
       sodipodi:cy="810.80829"
       sodipodi:cx="-275.0365"
       sodipodi:sides="3"
       id="path4016"
       style="fill:#44484c;fill-opacity:0.64705882;stroke:#000000;stroke-width:1.101403;stroke-linecap:round;stroke-linejoin:round;stroke-miterlimit:4;stroke-dasharray:none;stroke-opacity:1"
       sodipodi:type="star" />
    <path
       sodipodi:type="star"
       style="fill:#44484c;fill-opacity:0.64705882;stroke:#000000;stroke-width:1.101403;stroke-linecap:round;stroke-linejoin:round;stroke-miterlimit:4;stroke-dasharray:none;stroke-opacity:1"
       id="path4018"
       sodipodi:sides="3"
       sodipodi:cx="-275.0365"
       sodipodi:cy="792.12079"
       sodipodi:r1="10.409069"
       sodipodi:r2="5.2045345"
       sodipodi:arg1="1.5707963"
       sodipodi:arg2="2.6179939"
       inkscape:flatsided="true"
       inkscape:rounded="0"
       inkscape:randomized="0"
       d="m -275.0365,802.52986 -9.01452,-15.61361 18.02904,0 z"
       transform="matrix(0,1,1,0,-150.75492,698.49623)"
       inkscape:transform-center-y="2.6022818" />
    <path
       inkscape:transform-center-y="2.6022818"
       transform="matrix(0,1,1,0,-150.75492,698.49623)"
       d="m -275.0365,783.84236 -9.01452,-15.61361 18.02904,0 z"
       inkscape:randomized="0"
       inkscape:rounded="0"
       inkscape:flatsided="true"
       sodipodi:arg2="2.6179939"
       sodipodi:arg1="1.5707963"
       sodipodi:r2="5.2045345"
       sodipodi:r1="10.409069"
       sodipodi:cy="773.43329"
       sodipodi:cx="-275.0365"
       sodipodi:sides="3"
       id="path4020"
       style="fill:#44484c;fill-opacity:0.64705882;stroke:#000000;stroke-width:1.101403;stroke-linecap:round;stroke-linejoin:round;stroke-miterlimit:4;stroke-dasharray:none;stroke-opacity:1"
       sodipodi:type="star" />
    <rect
       ry="2.0163264"
       rx="2.0163264"
       y="457.82413"
       x="419.77231"
       height="7.375"
       width="7.375"
       id="rect4022"
       style="fill:#aaeeff;stroke:#000000;stroke-width:1;stroke-linecap:round;stroke-linejoin:round;stroke-miterlimit:4;stroke-dasharray:none;stroke-opacity:1"
       transform="matrix(0,1,1,0,0,0)" />
    <rect
       style="fill:#aaeeff;stroke:#000000;stroke-width:1;stroke-linecap:round;stroke-linejoin:round;stroke-miterlimit:4;stroke-dasharray:none;stroke-opacity:1"
       id="rect4024"
       width="7.375"
       height="7.375"
       x="419.77231"
       y="474.19913"
       rx="2.0163264"
       ry="2.0163264"
       transform="matrix(0,1,1,0,0,0)" />
    <rect
       style="fill:#aaeeff;stroke:#000000;stroke-width:1;stroke-linecap:round;stroke-linejoin:round;stroke-miterlimit:4;stroke-dasharray:none;stroke-opacity:1"
       id="rect4026"
       width="7.375"
       height="7.375"
       x="419.77231"
       y="490.94913"
       rx="2.0163264"
       ry="2.0163264"
       transform="matrix(0,1,1,0,0,0)" />
    <rect
       ry="2.0163264"
       rx="2.0163264"
       y="507.32413"
       x="419.77231"
       height="7.375"
       width="7.375"
       id="rect4028"
       style="fill:#aaeeff;stroke:#000000;stroke-width:1;stroke-linecap:round;stroke-linejoin:round;stroke-miterlimit:4;stroke-dasharray:none;stroke-opacity:1"
       transform="matrix(0,1,1,0,0,0)" />
    <circle
       transform="matrix(0,1,1,0,0,0)"
       id="path4030"
       style="fill:#2e2f31;fill-opacity:0.78440366;stroke:#000000;stroke-width:1;stroke-linecap:round;stroke-linejoin:round;stroke-miterlimit:4;stroke-dasharray:none;stroke-opacity:1"
       cx="423.37027"
       cy="535.6886"
       r="5.9504724" />
    <rect
       ry="5.2663264"
       rx="5.3913264"
       y="565.0741"
       x="416.02231"
       height="35.125"
       width="15.125"
       id="rect4032"
       style="fill:#999595;fill-opacity:1;stroke:#000000;stroke-width:1;stroke-linecap:round;stroke-linejoin:round;stroke-miterlimit:4;stroke-dasharray:none;stroke-opacity:1"
       transform="matrix(0,1,1,0,0,0)" />
    <rect
       style="fill:#999595;fill-opacity:1;stroke:#000000;stroke-width:1;stroke-linecap:round;stroke-linejoin:round;stroke-miterlimit:4;stroke-dasharray:none;stroke-opacity:1"
       id="rect4034"
       width="15.125"
       height="35.125"
       x="416.02231"
       y="396.23917"
       rx="5.3913264"
       ry="5.2663264"
       transform="matrix(0,1,1,0,0,0)" />
    <path
       inkscape:connector-curvature="0"
       id="path4038"
       d="m 399.78171,465.55567 h 19.375"
       style="fill:none;stroke:#000000;stroke-width:1px;stroke-linecap:butt;stroke-linejoin:miter;stroke-opacity:1" />
    <path
       sodipodi:nodetypes="cc"
       inkscape:connector-curvature="0"
       id="path4040"
       d="m 402.28485,461.72486 h 15.38388"
       style="fill:none;stroke:#000000;stroke-width:1px;stroke-linecap:butt;stroke-linejoin:miter;stroke-opacity:1" />
    <path
       inkscape:connector-curvature="0"
       id="path4042"
       d="m 381.46875,790.93248 v 38"
       style="fill:none;stroke:#000000;stroke-width:1px;stroke-linecap:butt;stroke-linejoin:miter;stroke-opacity:1;filter:url(#filter3994)"
       transform="matrix(0,1,1,0,-399.96327,96.805783)" />
    <path
       inkscape:connector-curvature="0"
       id="path4062"
       d="m 409.25614,427.93358 c -1.00928,-0.0614 -1.76938,-0.3607 -2.30385,-0.90738 -0.39793,-0.407 -0.67797,-0.96434 -0.81244,-1.61703 -0.0307,-0.14923 -0.0749,-0.41986 -0.069,-0.42385 0.002,0 0.3608,-0.036 0.79841,-0.0779 0.43759,-0.0418 0.8182,-0.0793 0.8458,-0.0833 0.0441,-0.007 0.0501,-0.004 0.0501,0.0199 0,0.0469 0.052,0.25575 0.10186,0.40955 0.23758,0.73182 0.7185,1.12295 1.48892,1.21104 0.17704,0.0203 0.63125,0.009 0.79612,-0.0197 0.4354,-0.0756 0.75711,-0.24633 0.97285,-0.51596 0.1685,-0.21062 0.22953,-0.38257 0.23019,-0.64872 0,-0.18969 -0.0239,-0.29543 -0.0965,-0.42122 -0.0501,-0.0865 -0.16875,-0.20632 -0.27302,-0.27565 -0.2489,-0.16545 -0.49626,-0.24651 -1.64916,-0.54038 -0.72026,-0.18353 -1.06363,-0.29343 -1.43731,-0.45993 -0.50607,-0.22555 -0.87316,-0.52383 -1.14732,-0.93231 -0.15108,-0.22509 -0.27096,-0.51511 -0.32681,-0.79073 -0.0267,-0.13101 -0.0303,-0.18933 -0.03,-0.45771 3.1e-4,-0.26602 0.004,-0.32518 0.0297,-0.43804 0.14758,-0.66056 0.56013,-1.2147 1.14595,-1.53939 0.26326,-0.14594 0.60406,-0.26757 0.94165,-0.33608 0.74104,-0.15041 1.72267,-0.12021 2.41533,0.0743 0.31958,0.0897 0.65262,0.24357 0.88929,0.41079 0.16274,0.11494 0.44837,0.40075 0.5646,0.56488 0.18598,0.26272 0.33525,0.60778 0.40347,0.93275 0.0345,0.16429 0.0615,0.37416 0.0615,0.47738 v 0.0607 l -0.0769,8e-5 c -0.0422,6e-5 -0.41085,0.0151 -0.81904,0.0334 -0.40819,0.0184 -0.76335,0.0333 -0.78929,0.0333 l -0.0471,2e-5 -0.0239,-0.11699 c -0.0534,-0.26228 -0.16991,-0.52447 -0.30358,-0.68367 -0.26029,-0.31003 -0.64489,-0.44305 -1.28061,-0.44286 -0.41867,9e-5 -0.70594,0.0564 -0.9855,0.19325 -0.32436,0.15877 -0.45673,0.3303 -0.47141,0.61075 -0.0111,0.20869 0.0389,0.35317 0.17208,0.49887 0.21305,0.23311 0.60415,0.3873 1.64992,0.65057 0.81415,0.20494 1.12372,0.29726 1.52442,0.45456 0.71182,0.27946 1.16765,0.66543 1.44367,1.22248 0.16508,0.33319 0.23767,0.6401 0.25618,1.08313 0.0221,0.52598 -0.10374,1.00911 -0.3826,1.47081 -0.31175,0.51613 -0.79454,0.8854 -1.43301,1.09609 -0.55663,0.18369 -1.29739,0.26424 -2.02377,0.22009 v 0 z"
       style="fill:#000000;stroke:#000000;stroke-width:0.01337218;stroke-linecap:round;stroke-linejoin:round;stroke-miterlimit:4;stroke-dasharray:none;stroke-opacity:1" />
    <path
       inkscape:connector-curvature="0"
       id="path4064"
       d="m 582.36827,423.34526 v -4.32589 l 1.88881,3e-4 c 1.03888,1.5e-4 2.04778,0.007 2.24207,0.0133 1.26959,0.0464 1.82352,0.2194 2.30326,0.71922 0.53357,0.5559 0.75495,1.4102 0.58534,2.25869 -0.0945,0.47272 -0.33167,0.88873 -0.68774,1.20626 -0.32711,0.29169 -0.85297,0.5198 -1.40964,0.61154 -0.12352,0.0203 -0.13641,0.0251 -0.11369,0.0409 0.0142,0.01 0.1159,0.0775 0.22622,0.15048 0.46323,0.30612 0.72727,0.56718 1.1006,1.08812 0.21664,0.30231 0.31361,0.45272 1.02703,1.5926 l 0.60321,0.96379 -1.03055,0.003 c -0.81358,0.002 -1.03382,-1e-4 -1.04597,-0.0133 -0.009,-0.009 -0.35233,-0.51926 -0.76404,-1.13337 -1.18931,-1.77391 -1.33763,-1.97478 -1.61352,-2.1851 -0.27363,-0.20863 -0.49348,-0.26033 -1.15513,-0.27165 l -0.41786,-0.007 v 1.80693 1.80696 h -0.86922 -0.86918 v -4.32589 z m 3.91806,-0.67566 c 0.2839,-0.0158 0.53483,-0.044 0.64333,-0.0723 0.32757,-0.0856 0.584,-0.34046 0.68081,-0.67654 0.0361,-0.12539 0.0512,-0.44337 0.0275,-0.58252 -0.0571,-0.33746 -0.22675,-0.57241 -0.51607,-0.71457 -0.27747,-0.13634 -0.40498,-0.14587 -1.96237,-0.14639 l -1.05306,-2.9e-4 v 1.10319 1.10323 l 0.96616,-3e-5 c 0.53135,0 1.07744,-0.007 1.21352,-0.0137 z"
       style="fill:#000000;stroke:#000000;stroke-width:0.01337218;stroke-linecap:round;stroke-linejoin:round;stroke-miterlimit:4;stroke-dasharray:none;stroke-opacity:1" />
    <path
       inkscape:connector-curvature="0"
       id="path4066"
       d="m 577.75211,427.82846 c -1.32244,-0.10424 -2.17217,-0.56797 -2.70868,-1.47815 -0.21518,-0.36514 -0.40547,-0.9549 -0.45693,-1.41614 l -0.009,-0.0828 0.0455,-0.008 c 0.0835,-0.0144 1.64885,-0.16204 1.65467,-0.1562 0.003,0.003 0.0186,0.0664 0.0347,0.14054 0.0159,0.0742 0.0533,0.20786 0.0829,0.29714 0.22981,0.6916 0.66281,1.07371 1.35833,1.19863 0.21267,0.0382 0.67844,0.0415 0.90299,0.006 0.29972,-0.047 0.52747,-0.12434 0.70648,-0.24015 0.24567,-0.1589 0.43009,-0.38155 0.51395,-0.62035 0.0474,-0.13509 0.0611,-0.40617 0.0272,-0.54054 -0.0665,-0.26379 -0.22565,-0.43627 -0.54798,-0.59386 -0.22605,-0.11054 -0.48386,-0.18773 -1.4513,-0.43446 -0.88109,-0.2247 -1.2379,-0.34575 -1.67243,-0.56727 -0.41485,-0.2115 -0.74082,-0.50027 -0.98137,-0.86933 -0.25583,-0.39247 -0.37488,-0.83807 -0.3551,-1.32897 0.0171,-0.42299 0.14637,-0.81522 0.38647,-1.17201 0.17665,-0.26244 0.36236,-0.4472 0.63024,-0.62688 0.54599,-0.36621 1.2682,-0.54794 2.17695,-0.54776 1.01301,2.1e-4 1.78104,0.20404 2.34793,0.62314 0.1466,0.10834 0.37696,0.33873 0.48533,0.48531 0.29271,0.39593 0.45488,0.84098 0.50039,1.37326 0.007,0.0817 0.011,0.15026 0.009,0.15235 -0.006,0.006 -1.745,0.0823 -1.75038,0.0774 -0.003,-0.003 -0.0163,-0.0578 -0.0306,-0.1236 -0.0809,-0.37109 -0.24349,-0.66964 -0.45571,-0.83658 -0.16419,-0.12922 -0.37726,-0.21653 -0.64821,-0.26566 -0.21655,-0.0392 -0.70519,-0.043 -0.93408,-0.007 -0.35851,0.0561 -0.65118,0.17995 -0.84142,0.35606 -0.20162,0.18668 -0.2599,0.50779 -0.13901,0.76613 0.055,0.11748 0.18801,0.25604 0.3253,0.33882 0.2542,0.1533 0.6931,0.29978 1.49051,0.49748 0.96252,0.23865 1.50964,0.41978 1.92051,0.63575 0.66492,0.34951 1.11074,0.92943 1.25112,1.6275 0.0509,0.25295 0.0655,0.44083 0.057,0.72971 -0.006,0.20294 -0.015,0.29328 -0.0419,0.42075 -0.14865,0.70401 -0.56414,1.31074 -1.14484,1.6717 -0.40878,0.25411 -0.92976,0.41665 -1.58195,0.4935 -0.17439,0.0206 -0.98685,0.0376 -1.15643,0.0242 v 0 z"
       style="fill:#000000;stroke:#000000;stroke-width:0.01352551;stroke-linecap:round;stroke-linejoin:round;stroke-miterlimit:4;stroke-dasharray:none;stroke-opacity:1" />
    <path
       inkscape:connector-curvature="0"
       id="path4068"
       d="m 415.39186,423.46298 v -4.34168 h 0.87915 0.87915 v 3.61132 3.61131 h 2.19791 2.19788 v 0.73038 0.73038 h -3.07703 -3.07706 z"
       style="fill:#000000;stroke:#000000;stroke-width:0.01352551;stroke-linecap:round;stroke-linejoin:round;stroke-miterlimit:4;stroke-dasharray:none;stroke-opacity:1" />
  </g>
</svg>
